<svg xmlns="http://www.w3.org/2000/svg" viewBox="0 0 23.87 20"><defs><style>.cls-1{fill:#006ed3;}.cls-2{fill:#fff;}</style></defs><title>bul-SHOW</title><g id="Layer_2" data-name="Layer 2"><g id="Layer_1-2" data-name="Layer 1"><path class="cls-1" d="M22.24,19.35a18.18,18.18,0,0,1-5.42-1.47,14.23,14.23,0,0,1-3-2.07l-.14-.12H8.09A7.6,7.6,0,0,1,8.09.5h6.85a7.58,7.58,0,0,1,4.2,13.91l-.33.22L19,15a8.29,8.29,0,0,0,1.35,2.51A19.51,19.51,0,0,0,22.24,19.35Z"/><path class="cls-2" d="M14.94,1a7.09,7.09,0,0,1,3.92,13l-.66.44.28.74a8.71,8.71,0,0,0,1.45,2.66c.22.25.46.5.71.74A15.42,15.42,0,0,1,17,17.43a13.46,13.46,0,0,1-2.91-2l-.28-.24H8.09A7.1,7.1,0,0,1,8.09,1h6.85m0-1H8.09a8.1,8.1,0,0,0,0,16.19h5.38a14.67,14.67,0,0,0,3.13,2.14A20.92,20.92,0,0,0,23.87,20a23,23,0,0,1-3.19-2.82,8.05,8.05,0,0,1-1.26-2.35A8.09,8.09,0,0,0,14.94,0Z"/></g></g></svg>