<svg xmlns="http://www.w3.org/2000/svg" viewBox="0 0 23.869 20"><defs><style>.cls-1{fill:#006ed3;}.cls-2{fill:#fff;}</style></defs><title>bul-SHOW</title><g id="Layer_2" data-name="Layer 2"><g id="Layer_1-2" data-name="Layer 1"><path class="cls-1" d="M22.237,19.352a18.4,18.4,0,0,1-5.421-1.471,14.083,14.083,0,0,1-3.022-2.069l-.141-.123H8.1A7.595,7.595,0,1,1,8.1.5h6.849a7.587,7.587,0,0,1,4.2,13.912l-.33.22.14.372a8.306,8.306,0,0,0,1.351,2.5A18.291,18.291,0,0,0,22.237,19.352Z"/><path class="cls-2" d="M14.944,1a7.087,7.087,0,0,1,3.919,13l-.66.442.28.743a8.8,8.8,0,0,0,1.443,2.655c.223.253.465.505.714.749a15.519,15.519,0,0,1-3.606-1.155,13.527,13.527,0,0,1-2.912-2l-.282-.245H8.1A7.095,7.095,0,1,1,8.1,1h6.849m0-1H8.1a8.095,8.095,0,1,0,0,16.189h5.371A14.657,14.657,0,0,0,16.6,18.331,20.89,20.89,0,0,0,23.869,20a23.021,23.021,0,0,1-3.192-2.824,8.044,8.044,0,0,1-1.258-2.348A8.087,8.087,0,0,0,14.944,0Z"/></g></g></svg>