<svg xmlns="http://www.w3.org/2000/svg" viewBox="0 0 38 38"><defs><style>.cls-1{fill:#3a5896;}.cls-2{fill:#fff;}</style></defs><title>fb-</title><g id="Layer_2" data-name="Layer 2"><g id="Layer_1-2" data-name="Layer 1"><circle class="cls-1" cx="19" cy="19" r="19"/><path class="cls-2" d="M22.857,16.327a9.124,9.124,0,0,1-2.571-.107,6.671,6.671,0,0,1,.214-2.357,6.717,6.717,0,0,1,2.357-.214V10.863l-.964-.107s-.039.093-.215.107h-2.25c-2.508.742-2.611,2.158-2.571,5.357a5.892,5.892,0,0,0-1.714.107v2.785h1.714V24.79a9.8,9.8,0,0,0,.107,2.679,11.906,11.906,0,0,0,3.322-.107v-8.25a5.688,5.688,0,0,0,2.357-.214Q22.749,17.613,22.857,16.327Z"/></g></g></svg>