<svg xmlns="http://www.w3.org/2000/svg" viewBox="0 0 38 38"><defs><style>.cls-1{fill:#3a5896;}.cls-2{fill:#fff;}</style></defs><title>fb-</title><g id="Layer_2" data-name="Layer 2"><g id="Layer_1-2" data-name="Layer 1"><circle class="cls-1" cx="19" cy="19" r="19"/><path class="cls-2" d="M22.86,16.33a9.27,9.27,0,0,1-2.57-.11,6.56,6.56,0,0,1,.21-2.36,6.82,6.82,0,0,1,2.36-.21V10.86l-1-.1s0,.09-.21.1H19.43c-2.51.74-2.61,2.16-2.57,5.36a5.49,5.49,0,0,0-1.72.11v2.78h1.72v5.68a10.14,10.14,0,0,0,.1,2.68,12.11,12.11,0,0,0,3.33-.11V19.11a5.72,5.72,0,0,0,2.35-.21C22.71,18,22.79,17.18,22.86,16.33Z"/></g></g></svg>