<svg xmlns="http://www.w3.org/2000/svg" viewBox="0 0 30 30"><defs><style>.cls-1{fill:#ff8600;}.cls-2{fill:#fff;}</style></defs><title>iconOK_sel</title><g id="Layer_2" data-name="Layer 2"><g id="Layer_1-2" data-name="Layer 1"><rect class="cls-1" width="30" height="30" rx="3.75"/><path class="cls-2" d="M9.21,9.823v.286h.02v.184h.02v.143h.014a.725.725,0,0,1,.007.123h.02v.123h.021v.081h.02v.1h.021v.082h.02v.082h.02v.082h.021v.061h.02v.082h.021v.061h.02v.061h.014a.188.188,0,0,1,.007.062h.02l.021.122h.02V11.6h.021v.062H9.6v.04h.02v.062h.021v.041h.013a.182.182,0,0,1,.007.061H9.68l.041.123h.02v.041h.021v.041h.02v.04H9.8v.062l.041.02v.041h.021v.041h.013a.085.085,0,0,1,.007.041H9.9v.041h.02V12.4h.02v.041l.041.02.021.082.041.02.02.082h.021l.02.061.041.021v.041h.02l.021.061.041.021v.04l.04.02.021.062.061.041v.041l.062.041v.04l.081.062v.041l.1.081v.041l.185.164v.041l.163.143.041.061h.041l.163.184h.041l.082.1h.041l.061.081h.041l.041.062h.041l.041.061h.041l.041.061h.04l.021.041.061.02V14.4h.041l.021.041.061.02v.021l.082.02.02.041.082.02.02.041.082.021v.02h.041v.02h.041v.021h.041v.021h.04v.02H12.4v.02l.082.021v.02h.041v.021h.041v.02l.123.041v.02h.061v.021h.041v.02l.1.021v.02h.061V15h.041v.02h.062v.021h.061v.02h.061v.02h.061V15.1H13.3v.02h.082v.021h.061v.02h.082v.021h.082v.02h.081v.02l.184.021v.02h.123v.021h.122v.02h.144v.021h.183v.02h.307a1.55,1.55,0,0,0,.491.021v-.021h.306v-.02h.184V15.3h.143v-.02H16V15.26h.123v-.02l.184-.021V15.2l.245-.041v-.02l.143-.021V15.1h.061v-.021h.062v-.02h.061v-.02L17,15.015V15h.041v-.021H17.1v-.02l.1-.021v-.02h.041v-.021H17.3v-.02l.123-.041v-.02h.041V14.79h.041v-.02l.1-.021.02-.04h.041v-.021h.041v-.021h.041v-.02H17.8v-.02h.041v-.021h.041l.02-.041.082-.02L18,14.5l.082-.02v-.021l.062-.02.02-.041H18.2v-.021l.061-.02.02-.041h.042l.04-.061h.041l.021-.041h.041l.061-.082h.041l.02-.041.062-.02.081-.1.062-.021.143-.163h.041l.163-.184.1-.082v-.041l.164-.143V13.3l.1-.082v-.041l.082-.061v-.041l.061-.041v-.041l.061-.041v-.041l.041-.02v-.04l.041-.021v-.041l.041-.02v-.041l.041-.021v-.041l.041-.02V12.6l.041-.02L20,12.46l.04-.02.041-.123.041-.02.041-.123h.021v-.041h.02l.041-.123h.02v-.061h.021v-.041h.02l.021-.082h.02v-.061h.021v-.041h.02c.089-.279.177-.559.266-.838v-.1h.02V10.7H20.7v-.123h.02v-.122h.021c.013-.123.027-.246.04-.368v-.2A2.719,2.719,0,0,0,20.8,9.23h-.021V8.964h-.02V8.78h-.02V8.658h-.021V8.535H20.7V8.412h-.021V8.331h-.013a.505.505,0,0,1-.007-.1l-.225-.735h-.02V7.452h-.021V7.39h-.02V7.35H20.35V7.288h-.02V7.247h-.021l-.02-.1h-.014a.977.977,0,0,1-.048-.123h-.02v-.04h-.02V6.941h-.021V6.9h-.02V6.859h-.021V6.818h-.02V6.777l-.041-.02-.041-.123-.041-.02c-.007-.028-.013-.055-.02-.082l-.041-.02L19.9,6.45H19.88l-.02-.081-.041-.021V6.307l-.062-.041V6.225l-.041-.02V6.164l-.061-.041V6.082l-.061-.041V6l-.061-.04V5.919l-.062-.041v-.02l-.041-.021V5.8l-.143-.123V5.632L19.1,5.469l-.184-.205h-.041l-.122-.142h-.041l-.021-.041h-.02l-.041-.062h-.041l-.041-.061H18.51L18.47,4.9h-.041l-.041-.062h-.041l-.02-.041h-.042l-.04-.061H18.2l-.021-.041-.061-.02V4.651l-.082-.02-.02-.041-.082-.021-.02-.04L17.8,4.488l-.02-.041h-.041V4.426h-.041v-.02h-.041v-.02h-.041V4.365H17.57V4.344h-.041v-.02l-.122-.041v-.02l-.1-.02V4.222h-.04V4.2H17.2V4.181h-.041v-.02H17.1a5.74,5.74,0,0,0-2.453-.409c-.052.046-.165,0-.245.02v.021h-.184v.02h-.143v.021h-.123v.02h-.1c-.107.033-.245.067-.348.1h-.081v.021h-.062V4H13.3v.021l-.205.04v.021h-.04V4.1l-.123.02v.02h-.041v.021h-.061v.02h-.041V4.2h-.061A5.992,5.992,0,0,0,9.6,7.39c-.007.041-.014.082-.02.123H9.557v.041h-.02l-.021.123H9.5v.061H9.475V7.8h-.02v.062H9.434c-.006.047-.013.1-.02.143H9.4a.317.317,0,0,0-.007.081c-.034.1-.069.241-.1.348v.123h-.02c-.014.149-.027.3-.041.449H9.21v.286a1.976,1.976,0,0,0-.021.532ZM12.6,9.455V9.23h.02V9.108h.021v-.1h.02V8.924h.021V8.862h.02l.041-.184h.02V8.637h.021V8.576h.02c.014-.041.027-.082.041-.123h.021l.02-.081.041-.021.02-.081.041-.021V8.208l.041-.02V8.147l.082-.062v-.04l.1-.082V7.922l.041-.021.1-.122H13.4l.082-.1h.041l.061-.082h.041l.02-.041.062-.021v-.02l.081-.02.021-.041.082-.021v-.02l.122-.041V7.35h.062V7.329h.04v-.02l.123-.021v-.02H14.3V7.247h.061v-.02h.081V7.206h.1v-.02h.122v-.02h.205l.2-.021v.021h.245v.02h.123v.02h.1v.021h.082v.02h.062v.021h.061v.02h.061v.021h.061v.02h.041V7.35h.062v.02l.122.041v.02l.082.021.02.041.082.02.021.041h.041l.041.061h.04l.041.062h.041l.082.1h.041l.02.041.123.1v.041l.1.082v.04l.061.042v.04L17,8.208v.041l.041.021.02.081.041.021.02.081h.021l.041.123h.02v.061h.021v.041h.02v.061h.021V8.8h.013a.185.185,0,0,1,.007.061h.02v.062h.021v.081a1.976,1.976,0,0,1,.02,1c-.007.061-.013.123-.02.184H17.3v.061h-.02v.062h-.02v.061h-.021v.061h-.02l-.021.082h-.013a1.965,1.965,0,0,0-.069.184l-.041.02-.02.082h-.02l-.021.061-.041.021v.041l-.041.02v.041l-.061.041v.041l-.041.02a.418.418,0,0,0-.122.164.411.411,0,0,0-.164.122l-.02.041h-.041l-.062.082h-.04l-.021.041h-.041l-.02.041-.062.02v.021l-.122.041v.02h-.041v.02h-.041v.021l-.123.041v.02h-.061v.021h-.041v.02l-.143.021v.02h-.061v.021h-.082v.02l-.245.02a1.824,1.824,0,0,1-.818-.04h-.082v-.021H14.32v-.02l-.143-.021v-.02h-.041v-.021h-.061v-.02l-.123-.041V11.7h-.041v-.02H13.87v-.02h-.041v-.021h-.041v-.02h-.04V11.6l-.062-.02-.02-.041h-.041l-.02-.041h-.041l-.062-.082h-.041l-.02-.041a.411.411,0,0,0-.164-.122.409.409,0,0,0-.122-.164l-.041-.02v-.041l-.061-.041v-.041l-.041-.02v-.041l-.041-.021L12.95,10.8h-.02l-.021-.082-.04-.02c-.021-.061-.041-.123-.062-.184h-.02l-.021-.082h-.02v-.061h-.02v-.061h-.021v-.062h-.02v-.061h-.021v-.082h-.013a.5.5,0,0,1-.007-.1h-.021V9.885H12.6V9.619h-.021C12.564,9.55,12.6,9.5,12.6,9.455ZM21.5,17.182v-.2h-.021v-.1h-.02v-.082h-.021v-.061h-.02l-.02-.122h-.021l-.02-.082h-.014a.087.087,0,0,1-.007-.041h-.02v-.041h-.02v-.041H21.27v-.041l-.041-.02V16.3l-.061-.041v-.041l-.062-.041v-.041l-.081-.061c-.034-.041-.068-.082-.1-.122h-.04l-.062-.083h-.041l-.02-.04h-.041l-.02-.041h-.041v-.021h-.041v-.02h-.041v-.02h-.041V15.71h-.041v-.02h-.041v-.021l-.368-.1H19.9v-.02l-.471.04v.021l-.266.061v.021l-.122.041v.02H19v.02l-.082.021-.02.041-.082.02-.02.041h-.041v.021h-.041l-.021.041h-.04v.02h-.041V16h-.041v.021h-.041l-.021.041h-.04v.02h-.041v.02h-.041v.021h-.041v.02h-.041v.021h-.041v.02h-.041V16.2h-.041v.02l-.122.041v.02H18V16.3h-.041v.02l-.081.021v.02h-.062v.021h-.04v.02l-.1.02v.021l-.122.021v.02h-.041v.02l-.123.021v.02h-.061v.021h-.061v.02H17.2v.021h-.061v.02L17,16.65v.021l-.164.021v.02h-.061v.02h-.1v.021h-.082v.02h-.1v.02h-.1v.021h-.1v.02H16.16v.021h-.143v.02h-.164V16.9h-.2v.02h-.287v.021h-.347l-.879-.041v-.021h-.164v-.02h-.143c-.1-.029-.234-.053-.327-.082h-.1v-.02l-.184-.021v-.02l-.225-.041V16.65H12.93v-.02h-.082v-.02h-.061v-.021h-.061v-.02h-.062v-.021H12.6v-.02h-.061v-.021l-.123-.02v-.02h-.041v-.021h-.061v-.021h-.041v-.02h-.062v-.02h-.04v-.021h-.062v-.02l-.082-.021V16.3h-.061v-.021h-.041v-.02l-.081-.02v-.021h-.041V16.2h-.041V16.18h-.041v-.02h-.041v-.021h-.041v-.02H11.6V16.1H11.56v-.02h-.041v-.02h-.041v-.021h-.04L11.417,16l-.122-.04-.021-.041-.082-.021-.02-.041-.082-.02-.02-.041-.123-.041v-.02l-.123-.041v-.021h-.061v-.02H10.7a1.59,1.59,0,0,0-.613-.1c-.044.037-.117,0-.184.02l-.368.1v.021l-.082.02v.021H9.414v.02H9.373v.02H9.332v.021H9.291l-.02.041H9.23l-.02.04H9.169l-.062.083H9.066l-.061.081-.122.1v.041l-.082.062v.04L8.76,16.3v.041l-.041.02v.041H8.7v.041H8.678v.041h-.02v.041H8.637v.041h-.02v.041H8.6c-.007.04-.013.082-.02.122a1.526,1.526,0,0,0,0,1.043l.02.122h.021l.041.123h.02v.041H8.7l.02.082.041.02V18.2l.041.021v.04l.061.041v.041l.164.143.061.082h.041l.061.082H9.23l.02.041.082.02.021.041.081.02.021.041.082.021.02.041H9.6v.02h.041l.02.041H9.7v.02h.041v.021h.041V19h.041l.02.041h.041v.02h.041v.021h.041v.02h.041v.021h.041v.02h.041v.021h.04v.02h.041v.021h.041v.02h.041v.02h.041v.021h.041v.02l.082.021v.02l.081.021v.02h.041v.02H10.6v.021l.082.02v.021h.041v.02h.062v.021l.081.02v.021h.062v.02h.041v.021l.1.02v.02h.061v.021h.041v.02l.123.021v.02h.041v.021l.183.041v.02h.062v.02h.061v.021H11.7v.02h.062v.021h.061v.02l.123.02v.021h.081v.02h.062v.021h.082v.02h.081V20l.389.082v.02c-.047.027-.066.066-.1.1l-.246.245-.531.512-.205.224-1.185,1.165-.47.491a3.734,3.734,0,0,0-.859.981v.062a1.442,1.442,0,0,0-.1.96c.007.062.013.123.02.184h.021v.062h.02v.041h.021V25.2h.013a.892.892,0,0,1,.048.123h.02v.04h.021l.02.082.041.021V25.5l.041.02.02.061.082.062v.041l.041.02.082.1H9.5l.061.082H9.6l.041.061.082.021.02.041.082.02v.02l.122.041v.021h.062v.02h.041v.021h.061v.02l.184.021a1.446,1.446,0,0,0,.961-.1h.061v-.02l.082-.021v-.02h.041l.02-.041.082-.02.041-.062h.041l.041-.061h.04l.573-.593.613-.593,1.022-1.042.613-.593.123-.143a2.106,2.106,0,0,0,.327-.327c.105.029.194.174.266.245l.081.061.532.552,2.228,2.208.2.225h.042l.04.061h.041l.041.062.082.02.02.041h.041v.02l.082.021v.02h.061v.021h.041v.02h.061v.021H18.9v.02h.061V26.2h.1a1.345,1.345,0,0,0,.511.04v-.02h.143V26.2H19.8v-.021h.082v-.02L20,26.135v-.02l.122-.041v-.021h.041v-.02h.041v-.02l.082-.021.02-.041h.041l.041-.061h.041l.061-.082h.041l.021-.041.1-.081v-.041l.082-.062.02-.061.041-.02v-.041l.041-.021.02-.082h.021v-.04h.02l.041-.123h.02v-.061h.014a.087.087,0,0,0,.007-.041H21c.014-.082.027-.164.041-.246a1.183,1.183,0,0,0,.041-.49h-.02v-.143h-.021v-.082h-.02V24.05H21v-.061h-.02v-.061h-.021v-.041h-.02v-.062h-.021l-.02-.081h-.013a.087.087,0,0,1-.007-.041l-.041-.021L20.82,23.6l-.041-.021v-.041l-.081-.061a5.376,5.376,0,0,0-.593-.614l-.634-.654-1.042-1.022-.593-.613-.143-.123-.245-.245c-.037-.036-.056-.075-.1-.1.045-.042.1-.019.164-.041v-.02h.082v-.021h.081V20l.225-.041v-.021l.143-.02V19.9H18.1v-.02h.061v-.02h.061v-.021h.061v-.02h.062V19.8h.061v-.02h.062v-.02l.184-.041A11.5,11.5,0,0,0,20.166,19h.041v-.02h.041V18.96h.041v-.02h.041l.02-.041.082-.02.02-.041.082-.021.021-.041.081-.02.021-.041.082-.02.04-.062h.041l.041-.061H20.9l.061-.082.164-.143v-.041l.061-.041v-.04l.041-.021v-.041l.041-.02.021-.082h.02V18.02h.02l.041-.123h.021l.1-.368v-.2h.02v-.143Z"/></g></g></svg>