<svg xmlns="http://www.w3.org/2000/svg" viewBox="0 0 30 30"><defs><style>.cls-1{fill:#4e6e91;}.cls-2{fill:#fff;}</style></defs><title>iconVK_sel</title><g id="Layer_2" data-name="Layer 2"><g id="Layer_1-2" data-name="Layer 1"><rect class="cls-1" width="30" height="30" rx="3.75"/><path class="cls-2" d="M19.15,22.77a9.34,9.34,0,0,1-1.42.45c-.29.08-.6,0-.8.09H8.85a19.75,19.75,0,0,1-.09-3V9.63A19.86,19.86,0,0,1,8.85,6.7c3.64.18,8.72-.56,11.1,1.16A4.33,4.33,0,0,1,21,11.5a3.9,3.9,0,0,1-2,2.57c.17.39.63.24,1,.45A4.82,4.82,0,0,1,21.64,16a5.4,5.4,0,0,1,.44,1.06v.8C22.63,20.09,20.55,22.16,19.15,22.77ZM16.49,12.48l.09-.63a1.83,1.83,0,0,0-.09-1.24c-.11-.21-.39-.34-.53-.53a21.78,21.78,0,0,0-2.84-.18v3.29C14.45,13.21,16,13.31,16.49,12.48Zm.62,4.17c-.07,0-1.4-.43-1.42-.45a9.8,9.8,0,0,0-2.57.09v3.82a10.8,10.8,0,0,0,3.37-.18c.48-.18.69-.62,1.07-.88a4.37,4.37,0,0,0,0-1.87C17.47,17,17.22,16.83,17.11,16.65Z"/></g></g></svg>