<svg xmlns="http://www.w3.org/2000/svg" viewBox="0 0 30 30"><defs><style>.cls-1{fill:#e5e6e7;}.cls-2{fill-rule:evenodd;}</style></defs><title>iconTW</title><g id="Layer_2" data-name="Layer 2"><g id="Layer_1-2" data-name="Layer 1"><rect class="cls-1" width="30" height="30" rx="3.75"/><path class="cls-2" d="M23.223,9.391a.884.884,0,0,0,.3-.07h.117V9.3h.117V9.274h.093V9.251h.094V9.228h.117V9.2l.186-.023V9.157h.071V9.134h.07V9.111h.07V9.087l.163-.023V9.04h.047V9.017l.14-.023V8.97h.094V8.947h.046V8.924a.57.57,0,0,1,.258-.047l.023.07h.023a.593.593,0,0,0-.023.093l-.093.071v.046l-.094.071v.046L25,9.3v.047l-.117.094v.047l-.163.14v.047l-.047.023a.469.469,0,0,0-.14.187h-.047a1.04,1.04,0,0,1-.35.351c-.063.069-.125.14-.187.21H23.9l-.117.14h-.047l-.07.093H23.62l-.046.07h-.047l-.047.071h-.047l-.116.163a4.506,4.506,0,0,1-.024,1.215v.444H23.27v.187h-.023v.164h-.024v.14H23.2v.117h-.024v.211c-.06.2-.1.457-.163.654v.093h-.024v.07h-.023l-.047.3H22.9v.047h-.024c-.015.094-.031.187-.046.281H22.8v.046h-.016c-.031.1-.055.2-.078.3h-.023V15.3h-.024v.07h-.023c-.016.07-.031.14-.047.21h-.016a.492.492,0,0,0-.031.094h-.023c-.016.07-.031.14-.047.21h-.023v.047h-.024l-.023.094h-.016a.973.973,0,0,0-.031.14h-.023l-.023.093h-.024v.047h-.023v.07h-.016a.11.11,0,0,0-.007.047h-.016a.094.094,0,0,0-.008.046l-.047.024v.07h-.023c-.008.039-.016.078-.023.117l-.047.023v.047h-.016a.108.108,0,0,0-.007.047h-.016a.961.961,0,0,0-.054.14l-.047.023-.024.117h-.023v.047l-.047.023V17.2h-.023v.047H21.8v.046h-.024v.047l-.047.024v.046h-.015a.1.1,0,0,0-.008.047h-.016a.108.108,0,0,0-.007.047h-.024v.046l-.07.047-.023.094H21.54v.046l-.046.024v.047l-.047.023-.023.094-.047.023v.046l-.047.024v.047l-.07.046-.023.094-.047.023v.047l-.07.047v.046l-.047.024v.046l-.07.047v.047l-.047.023V18.6l-.093.07v.047l-.07.047v.046l-.071.047V18.9l-.093.07v.047l-.094.07v.047l-.186.163v.047l-.164.14v.047l-.234.21a4.265,4.265,0,0,1-.514.491l-.187.21H19.2l-.093.117h-.047l-.093.117h-.047l-.094.117h-.046l-.047.07h-.047l-.023.047h-.047l-.07.093H18.5l-.023.047h-.047l-.047.07h-.046l-.024.047-.07.023v.024H18.2l-.023.047h-.047l-.023.046h-.047l-.023.047h-.047l-.023.047h-.047l-.023.046-.094.024-.023.046-.07.024v.023l-.141.047v.023l-.07.024-.023.047h-.047v.023H17.38v.023h-.046v.023h-.047V21.8H17.24v.023l-.093.023-.024.047-.21.07-.023.047-.211.07-.023.047-.117.023v.024h-.07V22.2l-.14.047v.024h-.047v.023l-.117.023v.023h-.047v.024l-.21.046v.024h-.047v.023l-.116.024V22.5l-.234.047v.023h-.047V22.6l-.234.047v.024h-.07v.023h-.07v.023h-.07v.024l-.351.07v.023h-.093v.024l-.234.023V22.9h-.093v.024h-.07v.023l-.3.023v.024h-.117v.023l-.234.024v.023l-.467.023a4.366,4.366,0,0,1-1.1.094,7.225,7.225,0,0,1-1.729-.094H9.972v-.023H9.785V23.04H9.668v-.024H9.551v-.023H9.434v-.024l-.28-.023v-.023H9.06V22.9H8.967v-.023H8.874v-.023l-.211-.024v-.023h-.07v-.024h-.07v-.023H8.406v-.023l-.163-.024v-.023H8.172v-.023H8.1v-.024h-.07v-.023H7.939V22.6H7.892v-.023h-.07v-.023h-.07v-.024l-.211-.046v-.024H7.5v-.023l-.211-.047v-.023H7.238v-.024l-.094-.023v-.023L7,22.269v-.024H6.957v-.023H6.91V22.2H6.864v-.023h-.07v-.024H6.747v-.023l-.141-.047v-.023h-.07v-.023H6.49v-.024H6.443l-.023-.047-.164-.046-.023-.047H6.186v-.024H6.139v-.023H6.092V21.8H6.046v-.024H6l-.023-.046h-.07v-.023H5.859l-.024-.047-.187-.094-.023-.117H5.64a.094.094,0,0,0,.008-.046c.031-.044.187-.024.258-.024h.747c.087-.071.382-.008.514-.047V21.31h.164v-.023h.187v-.023L7.8,21.24v-.023h.116v-.024l.211-.023v-.023h.093v-.024h.117V21.1h.07v-.024h.07v-.023l.327-.07V20.96H8.85v-.024l.234-.047v-.023h.047v-.023l.21-.047v-.023l.093-.024v-.023h.047V20.7l.234-.07.023-.046h.07v-.024h.047v-.023H9.9v-.024h.047v-.023h.046v-.023h.047v-.024l.14-.047.024-.046.117-.023.023-.047.07-.024v-.023l.14-.047.024-.046h.046v-.024h.047l.024-.047h.046L10.79,20l.093-.023.047-.07.094-.024.023-.046h.047v-.023a.3.3,0,0,1,.14-.071l.023-.093a.566.566,0,0,0-.327-.047c-.051-.044-.159-.023-.233-.047v-.023h-.164v-.023l-.187-.024v-.023h-.07V19.44h-.07v-.023l-.164-.023v-.023l-.093-.024v-.023L9.808,19.3v-.023l-.14-.047v-.023H9.621v-.024l-.14-.046-.023-.047-.14-.047L9.294,19H9.247v-.023H9.2l-.024-.047H9.131l-.047-.07H9.037l-.023-.047H8.967l-.046-.07H8.874l-.094-.117H8.733c-.054-.062-.109-.124-.163-.187l-.281-.257v-.046l-.07-.047v-.047l-.07-.047v-.046l-.07-.047v-.047l-.047-.023v-.047l-.07-.047c-.016-.046-.031-.093-.047-.14l-.046-.023-.024-.07H7.822c-.008-.039-.016-.078-.023-.117l-.047-.023-.07-.211H7.658V17.1H7.635a.578.578,0,0,1-.047-.28.3.3,0,0,1,.187-.047c.059.053.272.024.374.024l.911-.024v-.023l.117-.024v-.07a1.436,1.436,0,0,0-.163-.093H8.921v-.024l-.188-.023V16.5H8.687v-.024H8.64v-.023H8.593v-.023h-.07V16.4l-.094-.023v-.024H8.383v-.023l-.117-.023v-.024l-.07-.023-.024-.047-.14-.046-.023-.047H7.962V16.1H7.915l-.07-.093H7.8l-.024-.047H7.728l-.046-.07H7.635l-.07-.093H7.518l-.327-.351-.164-.14v-.047l-.093-.07V15.14l-.047-.023V15.07L6.794,15l-.024-.093L6.7,14.86c-.016-.047-.031-.094-.047-.14H6.638a.278.278,0,0,1-.032-.071l-.046-.023-.024-.117H6.513v-.047l-.046-.023v-.047H6.451a.763.763,0,0,1-.031-.14H6.4l-.046-.14H6.326v-.093H6.3v-.047H6.287c-.023-.078-.039-.156-.054-.234a3.66,3.66,0,0,1-.164-1.1.387.387,0,0,1,.14-.023c.042.046.046.02.094.047v.023H6.35l.023.047H6.42v.023h.07v.024h.07V12.8h.046v.023h.071v.024h.046v.023h.071V12.9h.093v.023h.07v.023h.07v.024h.094v.023h.117a1.86,1.86,0,0,0,.537.094l.024-.07H7.775c-.03-.113-.105-.107-.187-.164l-.047-.07H7.5l-.117-.141-.257-.233v-.047L7,12.266v-.047l-.07-.047v-.046L6.887,12.1v-.047l-.07-.047v-.046l-.047-.023v-.047l-.047-.024L6.7,11.8H6.677c-.016-.047-.032-.093-.047-.14l-.047-.023v-.047H6.56v-.07H6.536v-.047l-.046-.023V11.4H6.474a1.037,1.037,0,0,1-.031-.14H6.42v-.047H6.4l-.023-.093H6.35l-.024-.164H6.3v-.07H6.287a.213.213,0,0,1-.008-.07H6.264a.216.216,0,0,1-.008-.071H6.233v-.117H6.209v-.093H6.186v-.117H6.163v-.14H6.139v-.21a3,3,0,0,1,.047-1.145c.023-.141.047-.281.07-.421h.023V8.456H6.3l.023-.163h.016a.216.216,0,0,0,.008-.071h.015A.363.363,0,0,0,6.4,8.129H6.42l.023-.14h.024L6.49,7.9h.023c.071-.132.027-.252.234-.257l.093.141.047.023v.046l.047.024V7.9l.116.094v.046l.3.281v.047l.047.023.117.14h.047l.023.047H7.6c.1.1.2.2.288.3h.047l.187.21h.046l.094.117h.047l.093.117h.047l.07.093H8.57l.023.047H8.64l.023.047h.016a.166.166,0,0,1,.031.047h.047l.07.093h.047L8.9,9.7h.047l.046.07c.032.008.063.015.094.024l.047.069h.046L9.2,9.9h.046l.024.047.07.023V10l.093.023.047.07h.047l.023.047H9.6v.023h.047l.023.047.14.047v.023l.07.023.024.047.14.047.023.047h.047v.023h.047v.023h.047v.024h.047l.023.047h.047v.023h.069v.023l.094.023.023.047h.047V10.7h.07v.023h.047v.023h.047l.023.047h.047v.024l.14.023.023.047.117.023v.023h.07v.024h.047v.023l.14.047v.023l.141.024V11.1l.093.024v.023l.21.047v.023h.071v.023h.046v.024h.07v.023h.094v.023H12.1v.024l.21.047V11.4l.234.047c.377.141.834.186,1.238.3h.187c.132.039.313.054.444.094a3.252,3.252,0,0,0,.655.023c.064-.017.052-.006.07-.07h.015a.027.027,0,0,0,.008-.023c-.049-.076-.019-.117-.046-.21a3.548,3.548,0,0,1-.047-.912L15.16,10h.024l.023-.187h.023V9.765h.024l.023-.187h.016a.238.238,0,0,0,.007-.07h.016a.431.431,0,0,0,.031-.094h.024v-.07h.023V9.3h.023V9.228l.047-.024V9.157h.016a.106.106,0,0,0,.007-.046H15.5a.216.216,0,0,0,.008-.071l.047-.023V8.97h.023V8.924H15.6V8.877h.024V8.83l.07-.047.023-.093.047-.024V8.62l.07-.047.023-.093.094-.071V8.363l.14-.117V8.2l.117-.093.234-.258h.046l.094-.116h.046l.047-.07h.047l.047-.07.07-.024.023-.047.141-.046.046-.071H17.1V7.381h.047V7.358h.046V7.335h.047l.024-.047h.046V7.264h.047V7.241h.07l.024-.047H17.5V7.171l.141-.024V7.124l.14-.047V7.054l.187-.023V7.007h.07V6.984h.07V6.96h.07V6.937l.374-.047a2.79,2.79,0,0,1,1.285,0h.141v.024h.116v.023h.141V6.96h.07v.024h.047v.023l.257.047v.023L20.7,7.1v.023l.14.023v.024l.14.047v.023h.047v.023l.14.047.024.047.14.046.024.047.093.024.023.046h.047l.047.071h.047l.023.046h.047l.023.047.07.024.094.116h.046l.094.117.187.164a1.715,1.715,0,0,0,.631-.141h.117V7.942l.14-.023V7.9h.047V7.872l.233-.047V7.8l.094-.023V7.755l.163-.023V7.709l.141-.047V7.638l.14-.023V7.592l.14-.047V7.521h.047V7.5h.07V7.475l.093-.024V7.428H24.3l.024-.047h.07V7.358h.046V7.335h.047l.023-.047h.047a1.055,1.055,0,0,0,.141-.117l.07.023a.376.376,0,0,1,.023.141h-.023l-.024.116-.046.024v.07h-.024v.07h-.023v.047l-.047.023-.023.094h-.016a.2.2,0,0,0-.008.069l-.047.024-.023.07h-.023l-.047.14-.07.047-.023.093-.071.047v.047l-.046.024v.046l-.094.07V8.5l-.14.117v.046l-.093.071c-.055.062-.11.124-.164.187h-.023l-.024.046H23.62l-.093.117-.094.024-.046.07H23.34l-.023.047H23.27v.023l-.047.023Z"/></g></g></svg>