<svg xmlns="http://www.w3.org/2000/svg" viewBox="0 0 30 30"><defs><style>.cls-1{fill:#e5e6e7;}</style></defs><title>iconINS</title><g id="Layer_2" data-name="Layer 2"><g id="Layer_1-2" data-name="Layer 1"><rect class="cls-1" width="30" height="30" rx="3.75"/><path d="M19.45,24.84h-8.9a5.33,5.33,0,0,1-5.33-5.33v-8.9a5.33,5.33,0,0,1,5.33-5.33h8.9a5.33,5.33,0,0,1,5.33,5.33v8.9A5.33,5.33,0,0,1,19.45,24.84Zm-8.9-18a3.77,3.77,0,0,0-3.77,3.77v8.9a3.77,3.77,0,0,0,3.77,3.77h8.9a3.77,3.77,0,0,0,3.77-3.77v-8.9a3.77,3.77,0,0,0-3.77-3.77Z"/><path d="M15,20.12a5.06,5.06,0,1,1,5.06-5.06A5.07,5.07,0,0,1,15,20.12Zm0-8.57a3.51,3.51,0,1,0,3.51,3.51A3.52,3.52,0,0,0,15,11.55Z"/><path d="M20.23,11A1.08,1.08,0,1,1,21.31,9.9,1.08,1.08,0,0,1,20.23,11Z"/></g></g></svg>