<svg xmlns="http://www.w3.org/2000/svg" viewBox="0 0 30 30"><defs><style>.cls-1{fill:#e5e6e7;}</style></defs><title>iconOK</title><g id="Layer_2" data-name="Layer 2"><g id="Layer_1-2" data-name="Layer 1"><rect class="cls-1" width="30" height="30" rx="3.75"/><path d="M9.21,9.82v.29h0v.18h0v.15h0a.49.49,0,0,1,0,.12h0v.12h0v.08h0v.11h0V11h0V11h0v.08h0v.06h0v.08h0v.07h0v.06h0a.13.13,0,0,1,0,.06h0l0,.12h0v0h0v.06h0v0h0v.06h0v.05h0a.13.13,0,0,1,0,.06h0l0,.12h0v0h0v0h0v0h0v.06l0,0v.05h0v0h0v0h0v0h0v0h0v0l0,0,0,.08,0,0,0,.08h0l0,.07,0,0v0h0l0,.06,0,0v0l0,0,0,.06.06,0v0l.07,0v0l.08.07v0l.1.08v0l.18.16v0l.17.15,0,.06h0l.16.18h0l.09.1h0l.06.09h0l0,.06h0l0,.06h0l0,.06h0l0,0,.07,0v0h0l0,0,.06,0v0l.08,0,0,0,.08,0,0,0,.08,0v0h0v0h0v0h0v0h0v0h0v0l.08,0v0h0v0h0v0l.12,0v0h.07v0h0v0l.1,0v0H13v0h0v0h.06v0h.06v0h.07v0h.06v0h.06v0h.08v0h.06v0h.08v0h.08v0h.09v0l.18,0v0H14v0h.13v0h.14v0h.18v0h.31a1.57,1.57,0,0,0,.49,0v0h.31v0h.18v0h.14v0H16v0h.12v0l.18,0v0l.25,0v0l.14,0v0h.06v0h.06v0h.07v0L17,15v0h0v0h.06v0l.1,0v0h0v0h.06v0l.13,0v0h0v0h0v0l.1,0,0,0h0v0h0v0h0v0h.05v0h0v0h0l0,0,.08,0,0,0,.08,0v0l.06,0,0,0h0v0l.07,0,0,0h0l0-.06h0l0,0h0l.06-.08h0l0,0,.06,0,.09-.1.06,0,.14-.16h0a1.46,1.46,0,0,0,.16-.19l.11-.08v0l.16-.14v0l.1-.08v0l.08-.07v0l.07,0v0l.06,0v0l0,0v0l0,0v0l0,0v0l0,0v-.05l0,0v0l0,0,0-.12,0,0,0-.12.05,0,0-.13h0v0h0l0-.12h0V12h0v0h0l0-.08h0v-.07h0v0h0l.27-.83v-.11h0V10.7h0v-.12h0v-.12h0c0-.13,0-.25,0-.37V9.88a2.78,2.78,0,0,0,0-.65h0V9h0V8.78h0V8.66h0V8.54h0V8.41h0V8.33h0v-.1l-.23-.74h0v0h0V7.39h0v0h0V7.29h0v0h0l0-.1h0A.43.43,0,0,1,20.23,7h0V7h0v0h0v0h0v0h0v0h0v0l-.05,0a.93.93,0,0,0,0-.13l0,0a.31.31,0,0,0,0-.08l0,0,0-.06h0l0-.08,0,0v0l-.06,0v0l0,0v0l-.06,0v0l-.07,0V6l-.06,0v0l-.06,0v0l0,0v0l-.14-.13v0l-.19-.16-.18-.21h0l-.12-.14h-.05l0,0h0l0-.06h0l0-.06h0l0-.06h0l0-.06h0l0,0h0l-.05-.06h0l0,0-.06,0v0l-.08,0,0,0-.08,0,0,0-.12,0,0,0h0v0h0v0h0v0h0v0h0v0h0v0l-.12,0v0l-.11,0v0h0v0H17.2v0h0v0H17.1a5.8,5.8,0,0,0-2.45-.41c-.06,0-.17,0-.25,0v0h-.18v0h-.15v0H14v0h-.1L13.5,4h-.08V4h-.06V4H13.3V4l-.21,0v0h0v0l-.12,0v0h0v0h-.06v0h0v0h-.06A6,6,0,0,0,9.6,7.39l0,.12h0v0h0l0,.13h0v.06h0V7.8h0v.06h0l0,.14h0a.28.28,0,0,0,0,.09l-.1.34v.13h0c0,.15,0,.3,0,.45h0v.28a1.86,1.86,0,0,0,0,.53Zm3.39-.36V9.23h0V9.11h0V9h0V8.92h0V8.86h0l0-.18h0v0h0V8.58h0a.65.65,0,0,1,0-.13h0l0-.08,0,0,0-.08,0,0v0l0,0v0l.08-.06V8L13.22,8v0l0,0,.1-.12h0l.08-.1h0l.06-.09h.05l0,0,.06,0v0l.08,0,0,0,.08,0v0l.12,0v0h.06v0h0v0l.12,0v0h.06v0h.06v0h.08v0h.1v0h.13v0h.2l.21,0v0h.24v0h.12v0h.11v0h.08v0h.06v0h.06v0h.06v0h.06v0h0v0H16v0l.12,0v0l.08,0,0,0,.08,0,0,0h0l0,.07h.05l0,.06h0l.08.1h0l0,0,.12.1V8l.11.08v.05l.06,0v0l.06,0v0l0,0,0,.08,0,0,0,.08h0l0,.13h0v.06h0v0h0v.06h0V8.8h0v.06h0v.06h0V9a2,2,0,0,1,0,1l0,.18h0v.06h0v.06h0v.06h0v.07h0l0,.08h0a1.34,1.34,0,0,0-.07.18l0,0,0,.08h0l0,.07,0,0v0l0,0v0l-.06,0v0l-.05,0c0,.05-.1.09-.12.16s-.11.08-.16.13l0,0h0l-.06.08h-.05l0,0h0l0,0-.06,0v0l-.12,0v0h0v0h0v0l-.13,0v0h-.06v0h0v0l-.14,0v0h-.06v0h-.08v0l-.25,0a1.87,1.87,0,0,1-.82,0h-.08v0h-.06v0l-.14,0v0h0v0h-.07v0l-.12,0v0h0v0h0v0h0v0h0v0h0v0l-.06,0,0,0h0l0,0h0l-.06-.08h0l0,0c0-.05-.09-.11-.16-.13s-.08-.11-.13-.16l0,0v0l-.06,0v0l0,0v0l0,0,0-.07h0l0-.08,0,0-.06-.18h0l0-.08h0v-.07h0v-.06h0v-.06h0v-.06h0v-.08h0a.34.34,0,0,1,0-.1h0V9.88h0V9.62h0C12.56,9.55,12.6,9.5,12.6,9.46Zm8.9,7.72V17h0v-.1h0v-.09h0v-.06h0l0-.12h0l0-.08h0a.08.08,0,0,1,0,0h0v0h0v0h0v-.05l0,0v0l-.06,0v0l-.06,0v0L21,16.08l-.1-.12h0l-.06-.09h0l0,0h0l0,0h0v0h0v0h0v0h0v0h0v0h0v0l-.37-.1H19.9v0l-.47,0v0l-.27.06v0l-.12,0v0h0v0l-.08,0,0,0-.08,0,0,0h0v0h-.05l0,.05h0v0h0v0h0v0h0l0,0h0v0h0v0h0v0h0v0h0v0h0v0h-.05v0h0v0l-.12,0v0H18v0h0v0l-.08,0v0h-.06v0h-.05v0l-.1,0v0l-.12,0v0h0v0l-.12,0v0h-.07v0h-.06v0H17.2v0h-.06v0l-.14,0v0l-.17,0v0h-.06v0h-.1v0h-.08v0h-.1v0h-.11v0h-.1v0h-.12v0H16v0h-.17v0h-.2v0h-.29v0H15l-.88,0v0H14v0h-.14l-.33-.08h-.1v0l-.18,0v0l-.23,0v0h-.06v0h-.08v0h-.06v0h-.06v0h-.07v0H12.6v0h-.06v0l-.12,0v0h0v0h-.06v0h0v0h-.07v0h0v0h-.06v0l-.08,0v0H12v0h0v0l-.08,0v0h0v0h-.05v0h0v0h0v0h0v0h0v0h0v0h0v0h0v0h0l0,0-.13,0,0-.05-.08,0,0,0-.08,0,0,0-.12,0v0l-.13,0v0h-.06v0H10.7a1.42,1.42,0,0,0-.61-.1s-.12,0-.19,0l-.36.1v0l-.08,0v0H9.41v0h0v0h0v0h0l0,0h0l0,0h0L9.11,16h0L9,16l-.13.1v0l-.08.06v0l0,0v0l0,0v.05h0v0h0v0h0v0h0v0h0v0h0l0,.12a1.44,1.44,0,0,0,0,1l0,.13h0l0,.12h0v0h0l0,.08,0,0v0l0,0v.05l.06,0v0l.17.14.06.08h0l.06.08h0l0,0,.08,0,0,.05.08,0,0,0,.08,0,0,0h0v0h0l0,0h0v0h0v0h0v0h0l0,0h0v0h0v0h0v0h0v0h0v0h0v0h0v0h0v0h0v0h0v0h0v0h0v0l.09,0v0l.08,0v0h0v0h.06v0l.08,0v0h0v0h.06v0l.09,0v0h.06v0h0v0l.1,0v0h.06v0h0v0l.12,0v0h.05v0l.18,0v0h.06v0h.06v0h.06v0h.06v0h.07v0l.12,0v0H12v0h.06v0h.08v0h.09v0l.38.08v0s-.06.06-.1.1l-.24.24-.54.51c-.06.08-.13.15-.2.23l-1.19,1.16c-.15.17-.31.33-.47.49a3.85,3.85,0,0,0-.85,1v.06a1.46,1.46,0,0,0-.11,1L9,25H9v.06H9v0H9v.06H9s0,.09.05.13h0v0h0l0,.08,0,0v0l0,0,0,.06.08.06v.05l0,0,.09.1h0l.06.08h0l0,.06.08,0,0,0,.08,0v0l.13,0v0H10v0h0v0h.06v0l.18,0a1.46,1.46,0,0,0,1-.11h.07v0l.08,0v0h0l0,0,.08,0,0-.06h0l0-.06h0l.58-.59.61-.6,1-1,.61-.59.13-.14a2.48,2.48,0,0,0,.32-.33c.11,0,.2.17.27.24l.08.06c.18.19.36.37.53.56l2.23,2.2.21.23h0l0,.06h0l0,.06.08,0,0,0h0v0l.08,0v0h.07v0h0v0h.06v0h.06v0H19v0h.1a1.63,1.63,0,0,0,.51,0v0h.15v0h.08v0h.08v0l.12,0v0l.13,0v0h0v0h0v0l.08,0,0,0h0l0-.06h0l.06-.08h0l0,0,.11-.08v-.05l.08-.06,0-.06,0,0v0l0,0,0-.08h0v0h0l0-.13h0v-.06h0v0h0c0-.08,0-.16.05-.24a1.52,1.52,0,0,0,0-.49h0v-.15h0v-.08h0v-.08h0V24h0v-.06h0v0h0v-.06h0l0-.09h0s0,0,0,0l0,0,0-.08,0,0v0l-.08-.06a5.76,5.76,0,0,0-.59-.62c-.22-.21-.43-.43-.64-.65l-1-1-.59-.61-.15-.13-.24-.24s-.06-.08-.1-.1.09,0,.16-.05v0h.08v0h.08v0l.23,0v0l.14,0v0h.06v0h.06v0h.06v0h.07v0h.06v0h.06v0h.06v0l.18,0A11.81,11.81,0,0,0,20.17,19h0v0h0v0h0v0h0l0,0,.08,0,0,0,.08,0,0,0,.09,0,0-.05.08,0,0-.06h0l0-.06h0l.06-.08.17-.14v0l.06,0v-.05l0,0v0l0,0,0-.08h0v0h0l0-.12h0l.11-.37v-.2h0v-.15Z"/></g></g></svg>