<svg xmlns="http://www.w3.org/2000/svg" viewBox="0 0 30 30"><defs><style>.cls-1{fill:#e5e6e7;}</style></defs><title>iconFB</title><g id="Layer_2" data-name="Layer 2"><g id="Layer_1-2" data-name="Layer 1"><rect class="cls-1" width="30" height="30" rx="3.75"/><path d="M22.23,13.3a13.6,13.6,0,0,1-3.83-.16,9.88,9.88,0,0,1,.32-3.51,10.17,10.17,0,0,1,3.51-.32V5.16L20.8,5s-.06.14-.32.16H17.12c-3.73,1.1-3.89,3.22-3.83,8a8.9,8.9,0,0,0-2.55.16v4.15h2.55v8.47a14.78,14.78,0,0,0,.16,4c1.5,0,3.75.28,4.95-.16V17.45a8.3,8.3,0,0,0,3.51-.32C22,15.86,22.13,14.58,22.23,13.3Z"/></g></g></svg>