<svg xmlns="http://www.w3.org/2000/svg" viewBox="0 0 30 30"><defs><style>.cls-1{fill:#e5e6e7;}.cls-2,.cls-3{fill-rule:evenodd;}.cls-3{fill:#fff;}</style></defs><title>iconYOU_sel</title><g id="Layer_2" data-name="Layer 2"><g id="Layer_1-2" data-name="Layer 1"><rect class="cls-1" width="30" height="30" rx="3.75"/><path class="cls-2" d="M22,21.91a87.92,87.92,0,0,1-14,0,3.29,3.29,0,0,1-2.74-2.66,32.68,32.68,0,0,1,0-8.5A3.29,3.29,0,0,1,8,8.09a87.92,87.92,0,0,1,14,0,3.29,3.29,0,0,1,2.74,2.66,32.68,32.68,0,0,1,0,8.5A3.29,3.29,0,0,1,22,21.91Z"/><polygon class="cls-3" points="12.7 12.39 12.7 17.61 18.03 15 12.7 12.39"/></g></g></svg>