<svg xmlns="http://www.w3.org/2000/svg" viewBox="0 0 30 30"><defs><style>.cls-1,.cls-3{fill:#ce2200;}.cls-2{fill:#fff;}.cls-2,.cls-3{fill-rule:evenodd;}</style></defs><title>iconYOU_sel</title><g id="Layer_2" data-name="Layer 2"><g id="Layer_1-2" data-name="Layer 1"><rect class="cls-1" width="30" height="30" rx="3.75"/><path class="cls-2" d="M21.977,21.905a86.45,86.45,0,0,1-13.954,0,3.28,3.28,0,0,1-2.741-2.65,32.242,32.242,0,0,1,0-8.51A3.282,3.282,0,0,1,8.023,8.094a86.45,86.45,0,0,1,13.954,0,3.281,3.281,0,0,1,2.74,2.651,32.157,32.157,0,0,1,0,8.51A3.279,3.279,0,0,1,21.977,21.905Z"/><polygon class="cls-3" points="12.7 12.387 12.7 17.613 18.033 15 12.7 12.387"/></g></g></svg>