<svg xmlns="http://www.w3.org/2000/svg" viewBox="0 0 30 30"><defs><style>.cls-1{fill:#f040bc;}.cls-2{fill:#fff;}</style></defs><title>iconINS_sel</title><g id="Layer_2" data-name="Layer 2"><g id="Layer_1-2" data-name="Layer 1"><rect class="cls-1" width="30" height="30" rx="3.75"/><path class="cls-2" d="M19.45,24.51h-8.9a5.33,5.33,0,0,1-5.33-5.32V10.28A5.33,5.33,0,0,1,10.55,5h8.9a5.33,5.33,0,0,1,5.33,5.32v8.91A5.33,5.33,0,0,1,19.45,24.51Zm-8.9-18a3.77,3.77,0,0,0-3.77,3.77v8.91A3.77,3.77,0,0,0,10.55,23h8.9a3.77,3.77,0,0,0,3.77-3.77V10.28a3.77,3.77,0,0,0-3.77-3.77Z"/><path class="cls-2" d="M15,19.8a5.06,5.06,0,1,1,5.06-5.06A5.07,5.07,0,0,1,15,19.8Zm0-8.57a3.51,3.51,0,1,0,3.51,3.51A3.51,3.51,0,0,0,15,11.23Z"/><path class="cls-2" d="M20.23,10.66a1.08,1.08,0,1,1,1.08-1.08A1.08,1.08,0,0,1,20.23,10.66Z"/></g></g></svg>