<svg xmlns="http://www.w3.org/2000/svg" viewBox="0 0 30 30"><defs><style>.cls-1{fill:#e5e6e7;}</style></defs><title>iconINS</title><g id="Layer_2" data-name="Layer 2"><g id="Layer_1-2" data-name="Layer 1"><rect class="cls-1" width="30" height="30" rx="3.75"/><path d="M19.452,24.835h-8.9a5.329,5.329,0,0,1-5.324-5.324v-8.9a5.329,5.329,0,0,1,5.324-5.324h8.9a5.329,5.329,0,0,1,5.324,5.324v8.9A5.329,5.329,0,0,1,19.452,24.835Zm-8.9-18a3.777,3.777,0,0,0-3.772,3.771v8.9a3.777,3.777,0,0,0,3.772,3.771h8.9a3.777,3.777,0,0,0,3.772-3.771v-8.9a3.777,3.777,0,0,0-3.772-3.771Z"/><path d="M15,20.118a5.06,5.06,0,1,1,5.059-5.059A5.065,5.065,0,0,1,15,20.118Zm0-8.565a3.506,3.506,0,1,0,3.506,3.506A3.51,3.51,0,0,0,15,11.553Z"/><path d="M20.229,10.985a1.08,1.08,0,1,1,1.08-1.08A1.08,1.08,0,0,1,20.229,10.985Z"/></g></g></svg>