<svg xmlns="http://www.w3.org/2000/svg" viewBox="0 0 30 30"><defs><style>.cls-1{fill:#4e6e91;}.cls-2{fill:#fff;}</style></defs><title>iconVK_sel</title><g id="Layer_2" data-name="Layer 2"><g id="Layer_1-2" data-name="Layer 1"><rect class="cls-1" width="30" height="30" rx="3.75"/><path class="cls-2" d="M19.154,22.775a10.913,10.913,0,0,1-1.421.444c-.3.082-.605-.053-.8.089H8.854a18.762,18.762,0,0,1-.089-3.019V9.634A18.215,18.215,0,0,1,8.854,6.7c3.634.177,8.713-.562,11.1,1.154a4.345,4.345,0,0,1,1.065,3.64,3.893,3.893,0,0,1-2.042,2.575c.178.383.63.239.977.444a4.993,4.993,0,0,1,1.687,1.51,6.237,6.237,0,0,1,.444,1.065v.8C22.632,20.087,20.551,22.155,19.154,22.775Zm-2.664-10.3c.029-.207.059-.414.088-.622a1.88,1.88,0,0,0-.088-1.243c-.108-.207-.394-.341-.533-.532A22.966,22.966,0,0,0,13.116,9.9v3.285C14.447,13.214,16.019,13.306,16.49,12.475Zm.621,4.173c-.07-.017-1.4-.426-1.42-.444a9.427,9.427,0,0,0-2.575.089v3.818a11.033,11.033,0,0,0,3.374-.177c.479-.185.691-.623,1.065-.888a4.207,4.207,0,0,0,0-1.865C17.467,17.008,17.223,16.829,17.111,16.648Z"/></g></g></svg>