<svg xmlns="http://www.w3.org/2000/svg" viewBox="0 0 30 30"><defs><style>.cls-1{fill:#e5e6e7;}.cls-2{fill-rule:evenodd;}</style></defs><title>iconTW</title><g id="Layer_2" data-name="Layer 2"><g id="Layer_1-2" data-name="Layer 1"><rect class="cls-1" width="30" height="30" rx="3.75"/><path class="cls-2" d="M23.22,9.39a.89.89,0,0,0,.31-.07h.11v0h.12v0h.09v0H24v0h.11v0l.19,0v0h.07v0h.07v0h.07v0l.17,0V9h0V9l.14,0V9h.1V9h0v0a.53.53,0,0,1,.26,0l0,.07h0a.85.85,0,0,0,0,.09l-.09.07v.05l-.09.07v0L25,9.3v0l-.12.1v0l-.16.14v.05l0,0c-.05.06-.12.11-.14.19h0a1.09,1.09,0,0,1-.36.35l-.18.21H23.9l-.12.14h0l-.07.1h-.05l-.05.07h0l-.05.07h-.05l-.11.16a4.5,4.5,0,0,1,0,1.22v.44h0v.19h0V13h0v.14h0v.12h0v.21c-.06.2-.1.46-.17.65v.1h0v.07h0l0,.3h0v.05h0c0,.09,0,.18,0,.28h0v0h0c0,.1-.06.21-.08.31h0v0h0v.07h0c0,.07,0,.14-.05.21h0a.22.22,0,0,0,0,.1h0c0,.07,0,.14,0,.21h0v0h0l0,.1h0a.7.7,0,0,0,0,.14h0l0,.09h0v0h0v.07h0a.07.07,0,0,0,0,.05h0a.06.06,0,0,0,0,0l0,0v.07h0l0,.11,0,0v0h0a.09.09,0,0,0,0,.05h0l-.06.14,0,0,0,.12h0v.05l-.05,0v.05h0v0h0v.05h0v.05l0,0v.05h0a.06.06,0,0,0,0,0h0a.11.11,0,0,0,0,.05h0v.05l-.07,0,0,.1h0v0l-.05,0v0l0,0,0,.09,0,0v0l-.05,0v0l-.07.05,0,.09,0,0v0l-.07.05v.05l-.05,0v.05l-.07,0v.05l0,0v.05l-.1.07v0l-.07,0v0l-.07.05v0l-.09.07V19l-.09.07v.05l-.19.16v.05l-.17.14v0l-.23.21a4.83,4.83,0,0,1-.51.5l-.19.21H19.2l-.09.11h-.05l-.09.12h0l-.09.12h0l0,.07h0l0,0h-.05l-.07.1H18.5l0,0h-.05l0,.07h-.05l0,.05-.07,0v0H18.2l0,0h-.05l0,0h0l0,.05h0l0,0h0l0,.05-.09,0,0,.05-.07,0v0l-.14,0v0l-.07,0,0,.05h0v0h-.05v0h-.05v0h0v0h-.05v0l-.09,0,0,0-.21.07,0,.05-.21.07,0,.05-.12,0v0h-.07v0l-.14,0v0h0v0l-.11,0v0h-.05v0l-.21.05v0h-.05v0l-.12,0v0l-.23.05v0h0v0l-.23,0v0h-.07v0h-.07v0H15v0l-.35.07v0h-.09v0l-.24,0v0h-.09v0h-.07v0l-.31,0v0h-.11v0l-.24,0v0l-.46,0a4.76,4.76,0,0,1-1.1.09,7.36,7.36,0,0,1-1.73-.09H10v0H9.79v0H9.67v0H9.55v0H9.43v0l-.28,0v0H9.06v0H9v0h-.1v0l-.21,0v0H8.59v0H8.52v0H8.41v0l-.17,0v0H8.17v0H8.1v0H8v0H7.94v0H7.89v0H7.82v0H7.75v0l-.21-.05v0h0v0l-.21,0v0h0v0l-.1,0v0l-.14,0v0H7v0h0v0h0v0H6.79v0h0v0l-.14-.05v0H6.54v0h0v0h0l0-.05-.16,0,0-.05h0v0H6.14v0h0v0h0v0H6l0-.05H5.91v0h0l0-.05-.19-.09,0-.12h0a.09.09,0,0,0,0-.05s.18,0,.26,0h.74c.09-.07.38,0,.52-.05v0h.16v0h.19v0l.28,0v0h.12v0l.21,0v0h.09v0h.12v0h.07v0h.07v0L8.8,21v0h0v0l.23-.05v0h.05v0l.21,0v0l.09,0v0h.05v0l.23-.07,0,0h.07v0h0v0h0v0h0v0H10v0h0v0l.14-.05,0,0,.11,0,0,0,.07,0v0l.14,0,0-.05h.05v0h0l0-.05h0l0-.07.09,0,0-.07.09,0,0,0h0v0l.14-.07,0-.09a.66.66,0,0,0-.33,0s-.16,0-.23,0v0h-.17v0l-.18,0v0h-.07v0h-.07v0l-.17,0v0l-.09,0v0l-.14,0v0l-.14-.05v0H9.62v0l-.14,0,0-.05L9.32,19l0,0h0v0H9.2l0,0h0l-.05-.07H9l0-.05H9l-.05-.07H8.87l-.09-.12h0l-.16-.18-.28-.26v-.05l-.07-.05v0L8.15,18v0l-.07,0v0l-.05,0v0L8,17.73l0-.14,0,0,0-.07h0l0-.12,0,0-.07-.21h0v0h0a.59.59,0,0,1,0-.28.32.32,0,0,1,.19,0s.27,0,.37,0l.91,0v0l.12,0v-.07A.91.91,0,0,0,9,16.57H8.92v0l-.19,0v0h0v0h0v0H8.59v0H8.52v0l-.09,0v0h0v0l-.11,0v0l-.07,0,0,0-.14,0,0-.05H8v0h0L7.85,16h0l0,0h0l-.05-.07h0l-.07-.1h0l-.33-.35L7,15.3v0l-.1-.07v0l0,0v0L6.79,15l0-.09-.07-.05,0-.14h0a.11.11,0,0,1,0-.07l-.05,0,0-.12h0v0l0,0v0h0l0-.14h0l-.05-.14h0V14h0v0h0a2,2,0,0,1-.06-.23,3.69,3.69,0,0,1-.16-1.1.28.28,0,0,1,.14,0s0,0,.09,0v0h0l0,0h0v0h.07v0h.07v0h.05v0h.07v0h0v0h.07v0h.1v0H7v0H7v0h.09v0h.12a1.74,1.74,0,0,0,.54.09l0-.07h0c0-.11-.11-.1-.19-.16l0-.07h0l-.11-.14-.26-.23v-.05L7,12.27v0l-.07-.05v0l0,0v0L6.82,12v0l-.05,0v0l0,0,0-.07h0c0-.05,0-.1,0-.14l0,0v0h0v-.07h0v0l0,0v0h0l0-.14h0v0h0l0-.09h0l0-.16h0v-.07h0a.2.2,0,0,1,0-.07h0v-.07h0v-.12h0v-.09h0v-.12h0v-.14h0v-.21a2.93,2.93,0,0,1,.05-1.15c0-.14,0-.28.07-.42h0v0h0l0-.17h0a.15.15,0,0,0,0-.07h0l0-.09h0l0-.14h0l0-.09h0c.07-.14,0-.26.24-.26l.09.14,0,0v0l0,0v0L7.05,8V8l.3.28v0l.05,0,.12.14h0l0,0h0l.29.31h.05l.19.21h0l.1.11h0l.1.12h0l.07.09h.05l0,.05h.05l0,0h0l0,0h0l.07.1h0l0,0h0L9,9.76l.09,0,.05.07h0l0,.05h.05l0,0,.07,0v0l.09,0,.05.07h0l0,.05h0v0h0l0,.05.14,0v0l.07,0,0,0,.14.05,0,0h0v0h.05v0h.05v0h0l0,.05h0v0h.07v0l.1,0,0,0h.05v0h.07v0h0v0h.05l0,0h0v0l.14,0,0,.05.12,0v0h.07v0h0v0l.14,0v0l.14,0v0l.09,0v0l.21,0v0h.07v0h.05v0H12v0h.09v0h0v0l.21.05v0l.23,0c.38.14.84.18,1.24.3H14c.13,0,.31.06.44.09a3.07,3.07,0,0,0,.66,0c.06,0,0,0,.07-.07h0a0,0,0,0,0,0,0c-.05-.07,0-.11-.05-.21a3.32,3.32,0,0,1,0-.91l.09-.65h0l0-.19h0V9.76h0l0-.18h0a.2.2,0,0,0,0-.07h0l0-.1h0V9.34h0v0h0V9.23l0,0v0h0a.09.09,0,0,0,0-.05h0a.17.17,0,0,0,0-.07l.05,0V9h0V8.92h0v0h0V8.83l.07-.05,0-.09,0,0V8.62l.07,0,0-.09L16,8.41V8.36l.15-.11V8.2l.11-.09.24-.26h0l.1-.12h0l.05-.07h.05l0-.07.07,0,0-.05.14,0,0-.07h.05v0h0v0h0v0h0l0,0h0v0h.05v0h.07l0,0h.05v0l.14,0v0l.14,0v0L18,7V7H18V7h.07V7h.08v0l.37-.05a2.77,2.77,0,0,1,1.28,0H20v0h.12v0h.14V7h.07V7h.05V7l.26,0v0l.09,0v0l.14,0v0l.14,0v0H21v0l.14,0,0,.05.14,0,0,0,.1,0,0,0h.05l0,.07h.05l0,0h.05l0,.05.07,0,.1.12h0l.1.11.18.17A2,2,0,0,0,22.83,8h.11v0l.14,0v0h.05v0l.23,0v0l.1,0v0l.16,0v0l.14,0v0l.14,0v0l.14,0v0h.05v0h.07v0l.09,0v0h.05l0,0h.07v0h.05v0h0l0,0h0a1.49,1.49,0,0,0,.14-.12l.07,0a.52.52,0,0,1,0,.14h0l0,.12,0,0v.07h0v.07h0v0l0,0,0,.09h0v.07l0,0,0,.07h0s0,.1,0,.14l-.08.05,0,.09-.07,0v.05l-.05,0v.05l-.09.07v0L24,8.62v.05l-.09.07-.17.18h0l0,.05h-.05l-.09.12-.1,0,0,.07h-.05l0,.05h-.05v0l-.05,0Z"/></g></g></svg>