<svg xmlns="http://www.w3.org/2000/svg" viewBox="0 0 30 30"><defs><style>.cls-1{fill:#3a5896;}.cls-2{fill:#fff;}</style></defs><title>iconFB_sel</title><g id="Layer_2" data-name="Layer 2"><g id="Layer_1-2" data-name="Layer 1"><rect class="cls-1" width="30" height="30" rx="3.75"/><path class="cls-2" d="M22.233,13.3a13.576,13.576,0,0,1-3.832-.159A9.979,9.979,0,0,1,18.72,9.63a10.04,10.04,0,0,1,3.513-.319V5.16L20.8,5s-.058.138-.319.16H17.124c-3.738,1.1-3.892,3.215-3.832,7.983a8.754,8.754,0,0,0-2.555.159v4.152h2.555v8.462a14.573,14.573,0,0,0,.16,3.991c1.5.009,3.746.285,4.949-.159V17.454a8.5,8.5,0,0,0,3.513-.32Q22.073,15.218,22.233,13.3Z"/></g></g></svg>