<svg xmlns="http://www.w3.org/2000/svg" viewBox="0 0 30 30"><defs><style>.cls-1{fill:#f040bc;}.cls-2{fill:#fff;}</style></defs><title>iconINS_sel</title><g id="Layer_2" data-name="Layer 2"><g id="Layer_1-2" data-name="Layer 1"><rect class="cls-1" width="30" height="30" rx="3.75"/><path class="cls-2" d="M19.452,24.513h-8.9a5.33,5.33,0,0,1-5.324-5.324V10.283a5.33,5.33,0,0,1,5.324-5.324h8.9a5.33,5.33,0,0,1,5.324,5.324v8.906A5.33,5.33,0,0,1,19.452,24.513Zm-8.9-18a3.776,3.776,0,0,0-3.772,3.77v8.906a3.776,3.776,0,0,0,3.772,3.77h8.9a3.776,3.776,0,0,0,3.772-3.77V10.283a3.776,3.776,0,0,0-3.772-3.77Z"/><path class="cls-2" d="M15,19.8a5.059,5.059,0,1,1,5.059-5.059A5.064,5.064,0,0,1,15,19.8Zm0-8.564a3.506,3.506,0,1,0,3.506,3.505A3.509,3.509,0,0,0,15,11.231Z"/><path class="cls-2" d="M20.229,10.662a1.08,1.08,0,1,1,1.08-1.08A1.08,1.08,0,0,1,20.229,10.662Z"/></g></g></svg>