<svg xmlns="http://www.w3.org/2000/svg" viewBox="0 0 480.43 150">
    <title>
        logo
    </title>
    <g id="Layer_2" data-name="Layer 2">
        <g id="Слой_1" data-name="Слой 1">
            <path class="cls-1" d="M236.25,63.41h0a46.61,46.61,0,0,0,7-5.91c2.26-2.36,3.22-4.34,3.33-6.6.27-3.75-3.54-3-5.58-1.13a10.27,10.27,0,0,0-2.58,4.73L236.68,60l-1,3.76Zm-1.07,2.73-.05.22c-.65,2.57-2.26,7.24-2.47,9.71a2.68,2.68,0,0,0,.8,2.15,2.64,2.64,0,0,0,1.72.64,5.18,5.18,0,0,0,3.49-1,12.06,12.06,0,0,0,3.43-4,13.62,13.62,0,0,0,1.72-6.12c.16-2-.64-3.49-3.11-3.32.16-.27,1.66-1.13,2.2-2,.64-.49,3.65-.49,4.61-.59a20.28,20.28,0,0,0,3.28-.38c.37-.05.69-.16,1.12-.21.27-.06.38-.06.27.26a5.63,5.63,0,0,1-.37,1,16.35,16.35,0,0,1-1.13,1.56,3.64,3.64,0,0,1-1.29.8,8.45,8.45,0,0,1-1.23.06v.27a18.49,18.49,0,0,1-1.29,5.26,17.62,17.62,0,0,1-3.27,5.79,25,25,0,0,1-5.21,4.35,9.67,9.67,0,0,1-5.9,1.29c-3.28-.43-4.4-4.73-3.87-7,.81-3.28,1.51-5.91,2.26-8.7,1-3.11,2-6.06,3.11-9.28a19.29,19.29,0,0,1,3.65-6.28,18.69,18.69,0,0,1,5-4,8.21,8.21,0,0,1,4.4-1.13,3.4,3.4,0,0,1,2.69.81,4.51,4.51,0,0,1,.8,3.06,11.67,11.67,0,0,1-2.84,6.06c-3.33,3.92-8.21,7.24-11.92,10.2Zm71.27-4.08h0a11,11,0,0,0-2.69.86l-1.55.65.05-1.51a34.55,34.55,0,0,1,4.83-2,15.23,15.23,0,0,1,.7-1.72,4.42,4.42,0,0,1,2.2-.48c-.16.48-.27,1-.48,1.55a31.5,31.5,0,0,1,6.6-.64.9.9,0,0,1,.91.43c0,.05-.27.64-.27.64-1.13,2.69-5.63,17.44-2.47,17.55.43.06,1.88-.59,4.13-2a19.14,19.14,0,0,1,1.13-5.58,16.59,16.59,0,0,1,2.9-5.59,17.28,17.28,0,0,1,3.06-2.57,26.93,26.93,0,0,1,3.92-2.2,8.65,8.65,0,0,1,3.48-.86,6.2,6.2,0,0,1,3.55,1.13c1.12.75,1.71,2,1.71,4.07V64l6.34-4.14a5.4,5.4,0,0,1,3.05-1.12,4.18,4.18,0,0,1,2.9,1,3.31,3.31,0,0,1,1.29,2.89,5.63,5.63,0,0,1-.48,2.47,9.91,9.91,0,0,1-1.51,2,28.86,28.86,0,0,1-3.27,2.9,45.37,45.37,0,0,0-4.08,3.76,4.43,4.43,0,0,0-1.29,2.68,2.8,2.8,0,0,0,.81,1.88,2,2,0,0,0,1.72.8,6,6,0,0,0,3.11-1l4.35-2.47a18.26,18.26,0,0,1,1.12-5.47,16.63,16.63,0,0,1,2.9-5.58,18.7,18.7,0,0,1,3-2.58,23.78,23.78,0,0,1,4-2.14,8.69,8.69,0,0,1,3.49-.86,6.12,6.12,0,0,1,3.54,1.13,4.48,4.48,0,0,1,1.71,3.22l3.06-1.72a26.15,26.15,0,0,1,5-2.47c.59,0,.86.27.86.8a9.49,9.49,0,0,1-.43,2.21l-.64,2.57.48-.27c4.51-3.54,7.62-5.36,9.29-5.36a3.18,3.18,0,0,1,2.25.91,4.66,4.66,0,0,1,1.07,3.49,25,25,0,0,1-1.87,8.69,17.9,17.9,0,0,1-1.24,2.68,14.35,14.35,0,0,1-1.13,1.51c-.37.43-.91.91-1.71,1.66-1.72,1.34-3,2.41-4.08,3.06a6.66,6.66,0,0,1-3.65,1,13.52,13.52,0,0,1-3.22-.38l-2.58,11.76,6.17.37-1.71,1.34h-3l-9.12-.16L366,93.78l2.25-.21,4.73-19.75a55.3,55.3,0,0,0,1.5-8.21c0-1.08-.38-1.67-1.07-1.72a8.27,8.27,0,0,0-2.79,1,24.06,24.06,0,0,1-1.13,5.9,17.29,17.29,0,0,1-2.79,5.8,13.3,13.3,0,0,1-3.06,2.57,25.39,25.39,0,0,1-4.13,2.36,9.6,9.6,0,0,1-3.71,1,4.73,4.73,0,0,1-3.32-1.28c-.91-.7-1.45-2-1.56-3.87l-5.69,3.76a7.43,7.43,0,0,1-4.08,1.29,4.67,4.67,0,0,1-2.68-.7A4.56,4.56,0,0,1,336.77,80a3.9,3.9,0,0,1-.49-2,4.74,4.74,0,0,1,1.24-3.27,18.38,18.38,0,0,1,3.76-3.27c.42-.38,1.12-.81,2-1.45s1.5-1.24,2-1.72a7.87,7.87,0,0,0,1.34-1.66,4.15,4.15,0,0,0,.48-1.78,2.31,2.31,0,0,0-.64-1.77,1.67,1.67,0,0,0-1.29-.64c-1.07,0-3.43,1.13-6.92,3.27l-.38-1.34a21.64,21.64,0,0,1-1.23,6.12,17.29,17.29,0,0,1-2.79,5.8,13.09,13.09,0,0,1-3.06,2.57,19.68,19.68,0,0,1-4.13,2.36,9.78,9.78,0,0,1-3.7,1A4.7,4.7,0,0,1,319.65,81a4.91,4.91,0,0,1-1.56-3.75c-1,.8-2.25,1.55-3.7,2.47-2.25,1.5-4.13,2.41-4.83,2.41s-1.29-.8-1.13-2.2c.38-7.57,2.79-12.83,4.4-18.94a39.6,39.6,0,0,0-4.18.64c-1,2.47-1.67,5.21-2.79,8-2.2,5.2-4.94,13.47-10.68,12.34l-2-.43,3-3.27c1.29.16.92.27,1.77,0,2.37-.8,3.28-3.27,4.73-6.17C303.12,71,306.12,63,306.45,62.06ZM407.87,82.51l2.47-9.28A44.13,44.13,0,0,0,412.11,65c.06-1.13-.27-1.72-1-1.72a16,16,0,0,0-4,1.5l.27-1.45,4.13-2.2a32.38,32.38,0,0,1,5.05-2.47c.59,0,.8.27.8.81a12.53,12.53,0,0,1-.59,2.2l-1.13,4.83-.8,3.33,9.61-9.29a11.4,11.4,0,0,1,1.71-1.23,7.08,7.08,0,0,1,1.88-.81,6.76,6.76,0,0,1,1,0h1.45a6.65,6.65,0,0,1-.21,1.77l-.38,2.36a11.18,11.18,0,0,0-2.15-.26c-.37,0-.8,0-1.23,0a4.4,4.4,0,0,0-1.77.7c-1.29.8-4.72,4.34-6.12,5.58,1,4.13,7.14,20,13,19.21,1.66-.21,3.7-1.34,5-4.72l1.94,3.65a8.74,8.74,0,0,1-7.36,3.32c-6.81-.16-13.2-9.87-16.15-18.3l-.91.81-1.72,6.55-.37,1.45-1.77.8L408,82.62l0-.16ZM253.1,71.46,255,70.17a26.81,26.81,0,0,0,3.87-3.28,4.63,4.63,0,0,0,1.28-3.32c0-1.51-.64-2.2-1.71-2.2s-1.94.43-2.9,1.93S253.69,67.43,253.1,71.46Zm12,2.3v1.51a26.34,26.34,0,0,1-5.58,4.56,10.3,10.3,0,0,1-5.9,2c-3.06-.06-4.62-2-4.62-5.64a23.69,23.69,0,0,1,.86-5.9A21.74,21.74,0,0,1,252,64.85a10.63,10.63,0,0,1,2.41-2.79,9.59,9.59,0,0,1,3.28-2,7.74,7.74,0,0,1,3.43-1,2.66,2.66,0,0,1,2.25,1,3.4,3.4,0,0,1,.81,2.42,4.2,4.2,0,0,1-.81,2.58,9.46,9.46,0,0,1-2.2,2.57c-.91.81-2,1.56-3.43,2.58s-2.68,1.88-4.08,2.68l-.7.48a9.48,9.48,0,0,0,.65,3.87,2.7,2.7,0,0,0,2.68,1.55C258.36,78.65,261.31,77,265.07,73.76Zm-.16,8.48,2.68-11.37a51.28,51.28,0,0,0,1.29-6.12c0-.81-.27-1.13-.8-1.13a16.89,16.89,0,0,0-3.92,1.66l.21-1.5,4.08-2.25a22.72,22.72,0,0,1,2-1.13c.64-.38,1.23-.64,1.55-.8a2,2,0,0,1,.92-.27c.59,0,.8.27.8.8a16.69,16.69,0,0,1-.43,2.79l-.64,2.47,7.89-4.83a7.2,7.2,0,0,1,2.89-1.29.77.77,0,0,1,.81.65,21.53,21.53,0,0,1-.43,2.63l-.64,2.36,7.19-4.13c1.77-1.08,2.9-1.56,3.7-1.56.64,0,1,.27,1,.86a52.32,52.32,0,0,1-1.88,8.21,4.74,4.74,0,0,1-.27.86c-.05.27-.16.64-.21.91-.81,3.22-1.34,4.56-1.34,5.58s.37,1.56,1,1.56c.8,0,2-.7,4.83-2.58v1.29c-3.06,2.41-5.58,4.83-8.7,6.49a2.69,2.69,0,0,1-1.34-2.47,8.11,8.11,0,0,1,.22-2.2c.16-.64.42-1.87.91-3.75.27-1,.43-1.67.48-2a41.71,41.71,0,0,0,1.34-7.14c0-.86-.21-1.34-.7-1.34a5.89,5.89,0,0,0-2.25,1.07l-4.4,2.69L279.45,81l-4.08,1.5,3.06-11.75a25,25,0,0,0,1-5.58c0-.81-.21-1.13-.64-1.24A6.11,6.11,0,0,0,276.45,65l-4.3,2.63-3.43,13.41Zm65.31-21a4.75,4.75,0,0,0-3.06,1.28,11.52,11.52,0,0,0-2.68,3.76,16.77,16.77,0,0,0-1.93,7.83c.05,2,.43,3.44,1.23,4.19a3.71,3.71,0,0,0,2.47,1.13,5.5,5.5,0,0,0,3.49-1.67,13.26,13.26,0,0,0,2.9-4.56,18.22,18.22,0,0,0,1.28-6.54,6.63,6.63,0,0,0-1.12-4.14A3.64,3.64,0,0,0,330.22,61.21Zm32.79.37A4.76,4.76,0,0,0,360,62.87a11.42,11.42,0,0,0-2.68,3.76,16.57,16.57,0,0,0-1.93,7.83c.05,2,.42,3.44,1.23,4.19A3.3,3.3,0,0,0,359,79.77a5.53,5.53,0,0,0,3.49-1.66,12.94,12.94,0,0,0,2.89-4.62A16.76,16.76,0,0,0,366.66,67a6.23,6.23,0,0,0-1.13-4.13A3.8,3.8,0,0,0,363,61.58Zm15.62,5L378,67l-2.37,11.11a7.24,7.24,0,0,0,4.19,1.34c2.42,0,4.35-1.77,5.85-5.2a19,19,0,0,0,1.93-7.84,6.4,6.4,0,0,0-.43-2.58,1.71,1.71,0,0,0-1.5-1C384.53,62.87,382.17,64.05,378.63,66.63Zm29,8.1v1.66a36.37,36.37,0,0,1-6.49,4.13,13.4,13.4,0,0,1-5.79,1.94c-2.69,0-4.08-1.72-4.08-5.21a26.09,26.09,0,0,1,.91-6.6,17,17,0,0,1,2.58-5.8,11.6,11.6,0,0,1,2-2c.7-.49,1.77-1.24,3.06-2,.8-.49,1.45-.86,1.88-1.13a3.06,3.06,0,0,1,1.55-.43,3.22,3.22,0,0,1,2.37.91,3.71,3.71,0,0,1,1,2.79v.7l-3.12,1.88a5.21,5.21,0,0,0-.8-2.58A2.07,2.07,0,0,0,401,62a3.49,3.49,0,0,0-2.68,1.72,14.26,14.26,0,0,0-2.15,4.72,22.65,22.65,0,0,0-.86,6.49c0,2.9,1.13,4.35,3.44,4.35C400.52,79.29,403.53,77.84,407.6,74.73Zm32.74-1.18,1.23-5.42,1.56-6.39a19.6,19.6,0,0,0-4.56-.64,3.76,3.76,0,0,0-2.9,1.29,14.4,14.4,0,0,0-1.93,3.7,28.84,28.84,0,0,0-1.88,8.32,7.47,7.47,0,0,0,.27,2.41,1.34,1.34,0,0,0,1.34.91C434.44,77.68,436.74,76.34,440.34,73.55ZM447,61.31,446.57,63c-.49,2-1,4-1.35,5.85s-.8,3.27-1,4.34-.26,1.93-.37,2.63c0,.86.21,1.34.64,1.34a8.43,8.43,0,0,0,2.2-1,33.06,33.06,0,0,0,3.33-2.2v1.56c-2.63,1.88-4.72,3.27-6,4.19a19.82,19.82,0,0,1-2.68,1.71,2.83,2.83,0,0,1-1.07.43c-.65,0-.86-.43-.86-1.29a11.61,11.61,0,0,1,.27-2.41l.37-2.42c-1.66,1.24-3,2.21-4.08,2.9a24.39,24.39,0,0,1-2.57,1.77,14.39,14.39,0,0,1-1.88,1.08,3,3,0,0,1-1.34.37c-1.5,0-2.36-1.66-2.36-4.61A30.59,30.59,0,0,1,429,70.44a21.56,21.56,0,0,1,2.2-6,5.08,5.08,0,0,1,1.35-1.5,8.61,8.61,0,0,1,1.5-1.24c.59-.43,1.12-.8,1.88-1.29a9,9,0,0,1,2.68-1.55,11.06,11.06,0,0,1,3.43-.43,36.45,36.45,0,0,1,6.6.8Z"/>
            <path class="cls-1" d="M184,83.23c-1.33,3.18-3.47,4.36-5,4.58-5.77.82-11.91-15-12.87-19,1.48-1.25,4.81-4.58,6.07-5.47a7,7,0,0,1,1.77-.67,8.1,8.1,0,0,1,1.26-.07c.52,0,1.18.15,2.07.22l.37-2.37c0-.59.08-1.1.08-1.7h-1.26a5.87,5.87,0,0,0-1.11,0,4.36,4.36,0,0,0-1.85.67A7,7,0,0,0,172,60.67l-9.55,9.09.89-3.32,1.11-4.74a14.18,14.18,0,0,0,.59-2.14c0-.45-.29-.67-.81-.67a25.24,25.24,0,0,0-5,2.44l-4,2.15-.3,1.4a19,19,0,0,1,3.92-1.48c.67.08,1,.67,1,1.78A49.73,49.73,0,0,1,158,73.31l-2.44,9.1,2.44-1,1.77-.81.37-1.41,1.7-6.58.89-.59c2.89,8.36,9.1,18,16,18a8.58,8.58,0,0,0,7.17-3.32Zm-59.47-6.81a37.58,37.58,0,0,1,1.85-9.1l2.44-8.95-4.73,2.37-1.85,8.65h-8l1.85-8.13a6.35,6.35,0,0,0,.3-1.7.74.74,0,0,0-.81-.82c-.37,0-3.33,1.56-8.81,4.59l-.22,1.48,1.41-.59a10.63,10.63,0,0,1,2.66-1.11.78.78,0,0,1,.89.88,49.59,49.59,0,0,1-1.48,7.48l-2.81,11.16,4.07-1.85,2.36-9.61,4-.22,4.14-.08-1.56,7.77A12.5,12.5,0,0,0,120,81c0,1,.44,1.48,1.11,1.48s2.07-.67,4.21-2.07,4.15-2.59,6-4l.29-1.7c-3.62,2.44-5.62,3.55-6.21,3.55S124.54,77.6,124.54,76.42Zm31.29-1.63c-3.62,2.37-5.62,3.55-6.21,3.55s-.89-.66-.89-1.85a37.44,37.44,0,0,1,1.85-9.09l2.44-9-4.58,2.22-3.26,13.75-3.33,2.07a17.1,17.1,0,0,1-3.62,2c-.74,0-1.11-.66-1.11-2.07a11,11,0,0,1,.37-3c.29-1.11,1-4.21,2.37-9.32a44.91,44.91,0,0,0,1-4.73c0-.59-.22-.81-.59-.81-.6,0-3.48,1.62-8.81,4.73l-.22,1.55a11.3,11.3,0,0,1,4-1.55c.44,0,.74.44.81,1.11,0,1-.59,3.92-2,8.73-.52,1.62-.66,2.81-.89,3.62a14.12,14.12,0,0,0-.29,2.81c0,1.92.59,3,1.77,3a2.5,2.5,0,0,0,1.48-.59c.6-.44,1.85-1.11,3.7-2.29l5.11-3.33-.37,2.15a10.27,10.27,0,0,0-.3,2.36c0,1,.44,1.48,1.11,1.48s2.37-.81,4.73-2.36a41.65,41.65,0,0,0,5.48-3.7ZM63.67,79.23c-2.36,0-3.55-1.48-3.55-4.51A24.2,24.2,0,0,1,61,68.06a15.47,15.47,0,0,1,2.14-4.8c1-1.19,1.85-1.78,2.81-1.78a2.4,2.4,0,0,1,1.71,1A4.34,4.34,0,0,1,68.55,65l3.33-1.85v-.81a3.89,3.89,0,0,0-1-2.81,3.62,3.62,0,0,0-2.44-1,4.11,4.11,0,0,0-1.55.37,22.4,22.4,0,0,0-2,1.1,32.38,32.38,0,0,0-3.11,2.3,11,11,0,0,0-2.07,2.07,16.63,16.63,0,0,0-2.66,6,31.92,31.92,0,0,0-1,6.88c0,3.62,1.4,5.4,4.21,5.4,1.48,0,3.41-.74,6-2A39.89,39.89,0,0,0,73,76.42v-1.7C68.78,78,65.74,79.45,63.67,79.23Zm44.23-4.51c-2.81,2-4.58,3-5.47,3s-1.11-.45-1.11-1.55a35.45,35.45,0,0,1,1.41-6.51,5,5,0,0,0,.22-.89c.07-.3.22-.59.29-.89,1.41-4.81,2.07-7.62,2.07-8.5a.88.88,0,0,0-1-.89c-.89,0-2.14.59-4,1.7L93,64.36l.59-2.44a9.16,9.16,0,0,0,.52-2.66c0-.44-.29-.66-.81-.66a7.11,7.11,0,0,0-3,1.4l-8.14,5,.59-2.59a15.21,15.21,0,0,0,.52-2.81.79.79,0,0,0-.89-.89,1.83,1.83,0,0,0-1,.3c-.3.22-.89.52-1.55.89s-1.41.81-2.07,1.18l-4.15,2.37L73.36,65a12.54,12.54,0,0,1,4-1.7c.59,0,.81.3.81,1.11a43.07,43.07,0,0,1-1.26,6.29L74.1,82.49l4-1.56L81.65,67.1l4.43-2.74a6.06,6.06,0,0,1,2.37-1.1c.44.07.67.44.67,1.25Q88.9,66.4,88,70.28L84.75,82.34,89,80.86l3.4-14.42,4.51-2.81a6.51,6.51,0,0,1,2.37-1.11c.52,0,.81.51.81,1.4a38.53,38.53,0,0,1-1.4,7.4c-.15.52-.3,1.18-.52,2.07-.44,2-.89,3.33-1,4a10.89,10.89,0,0,0-.22,2.3,3,3,0,0,0,1.4,2.66,61.16,61.16,0,0,0,9.54-6.21ZM43.63,77.83a9.68,9.68,0,0,1-.67-4l.82-.52c1.4-1,2.81-1.84,4.21-2.81a31.59,31.59,0,0,0,3.55-2.73,12.73,12.73,0,0,0,2.29-2.67,5.5,5.5,0,0,0,.89-3,3.72,3.72,0,0,0-.81-2.44,3,3,0,0,0-2.37-1,8.57,8.57,0,0,0-3.55,1,15.93,15.93,0,0,0-3.55,2.44,20.77,20.77,0,0,0-2.59,3,28.56,28.56,0,0,0-3,11.91c0,3.7,1.48,5.69,4.73,5.77a11.39,11.39,0,0,0,6.07-2.15,30.12,30.12,0,0,0,5.69-4.73V74.28c-3.77,3.4-6.87,5.17-9,5.1A2.66,2.66,0,0,1,43.63,77.83ZM45.4,63.48c1-1.56,2.07-2.37,3-2.37,1.18,0,1.77.89,1.77,2.37a6,6,0,0,1-1.4,3.84,23,23,0,0,1-4,3.41L43,72C43.55,67.77,44.44,65,45.4,63.48Z"/>
            <path class="cls-1" d="M32.55,59.41a12.84,12.84,0,0,0-4.23-.84,17.4,17.4,0,0,0,7.14-4.84A10.05,10.05,0,0,0,38.28,47c-.08-2.71-1.14-4.38-3.17-5.41a21.28,21.28,0,0,0-8.56-1.39h-1.5l.44-2.42L20,40.69a26.22,26.22,0,0,0-10.67,3,20,20,0,0,0-6.88,6.52A16.79,16.79,0,0,0,.71,63.79L6,61.09a24.9,24.9,0,0,1-.71-5.22,12.69,12.69,0,0,1,1.33-6.52,10.92,10.92,0,0,1,3.7-3.91,17.21,17.21,0,0,1,9.35-2.88l-4.59,20.3a86.51,86.51,0,0,1-2.2,8.66A12.08,12.08,0,0,1,11,75.71C9.61,77.48,7.59,78.5,4.5,78.6L1.41,82H15.79a23.33,23.33,0,0,0,6.53-.84,31.27,31.27,0,0,0,6.79-2.88c5.38-3.17,8.11-7.27,8.11-12.11A7.07,7.07,0,0,0,35.9,62,9.5,9.5,0,0,0,32.55,59.41ZM24.61,42.09a14,14,0,0,1,5.47.74A4,4,0,0,1,31.93,45a6.56,6.56,0,0,1,.8,3.26,12.68,12.68,0,0,1-1.06,4.47,9.35,9.35,0,0,1-2.83,3.91,13.14,13.14,0,0,1-7.93,2.51Zm6.26,30a16.19,16.19,0,0,1-2,3.72c-1.94,2.14-4.58,3.26-8.46,3.26L16.76,79l-5.82-.65a37.49,37.49,0,0,0,6-6.89,13.5,13.5,0,0,0,1.32-2.33A14.81,14.81,0,0,0,19,66.77a10.29,10.29,0,0,0,.61-2.14c.09-.75.36-1.49.44-2.24l.44-1.58,2.47-.09c3.18,0,5.47.74,6.8,2.23a8.29,8.29,0,0,1,1.85,4.94A13.5,13.5,0,0,1,30.87,72.08Z"/>
            <path class="cls-1" d="M224.92,47.11c.52,0,1.52.78,1.56.33,0-.7-.7-1.28-1.39-1.53a7.07,7.07,0,0,0-3.73,0c-4,.78-8.29,4.54-10.07,8.06-1.52,3-1.18,6.85,1.78,8.76a7.23,7.23,0,0,0,3,1c4.52.12,8-2.15,11.07-5.09a31,31,0,0,0,5.13-6.24,14.49,14.49,0,0,0,1.95-5.08,8.22,8.22,0,0,0-.48-4.67c-1.17-2.89-4.51-4.46-7.16-4.54-4.73-.21-10.59,2.64-14.19,5.24a77.21,77.21,0,0,0-7.21,6.37,48.14,48.14,0,0,0-6,8.1,26.9,26.9,0,0,0-4.39,13.43c0,6.69,2.78,11,9.51,11.69a18.76,18.76,0,0,0,12.37-3.55A42.27,42.27,0,0,0,226.91,66c.13-.33-.65-.53-.82-.29a43.67,43.67,0,0,1-6.12,8.1,25.55,25.55,0,0,1-7,5.54c-3.56,1.74-8.81,2.07-11.59.21a8.39,8.39,0,0,1-2.17-2.07c-2-2.89-.91-7.93.3-11.12a58.48,58.48,0,0,1,6.12-10.62A51.7,51.7,0,0,1,212.11,48a61.34,61.34,0,0,1,5.64-4.84c2.26-1.69,6.52-3.88,9.55-3.72,2.26.17,3.74,1.53,3.91,4.88,0,2.06-1.78,5.66-3.91,9.21-3.21,5.25-8.5,9.84-12.15,8.85s-2-6.62-.56-8.6a20.61,20.61,0,0,1,4.34-4.71A7.24,7.24,0,0,1,224.92,47.11Z"/>
            <path class="cls-2" d="M3.21,103.24V107c0,1.43,0,2.6-.1,3.8l0,0c.45-.94,1-1.91,1.66-3l2.91-4.62H8.87v9H7.78V108.4c0-1.46,0-2.52.1-3.66h0a27.59,27.59,0,0,1-1.66,3l-2.82,4.46H2.12v-9Z"/>
            <path class="cls-2" d="M12,105.77v2.6h3.07v-2.6h1.16v6.45H15.08V109.3H12v2.92H10.85v-6.45Z"/>
            <path class="cls-2" d="M22,102.76v2.89a3.35,3.35,0,0,1,0,6.69v2.53H21v-2.51a3.19,3.19,0,0,1-3.24-3.31,3.24,3.24,0,0,1,3.24-3.4v-2.89ZM21,106.45a2.6,2.6,0,0,0,0,5.09ZM22,111.54a2.6,2.6,0,0,0,0-5.09Z"/>
            <path class="cls-2" d="M32.6,108.94a3.16,3.16,0,0,1-3.22,3.43,3.07,3.07,0,0,1-3.09-3.32,3.15,3.15,0,0,1,3.2-3.43A3.06,3.06,0,0,1,32.6,108.94Zm-5.12.07c0,1.41.81,2.48,2,2.48s2-1,2-2.51c0-1.09-.55-2.48-1.94-2.48S27.48,107.78,27.48,109Z"/>
            <path class="cls-2" d="M34.1,107.88c0-.83,0-1.5-.05-2.11H35.1l0,1.11h0a2.54,2.54,0,0,1,2.3-1.26c1.56,0,2.73,1.32,2.73,3.28,0,2.32-1.41,3.47-2.93,3.47a2.25,2.25,0,0,1-2-1h0v3.51H34.1Zm1.16,1.72a3.54,3.54,0,0,0,.05.48,1.82,1.82,0,0,0,1.76,1.37c1.25,0,2-1,2-2.49,0-1.3-.68-2.4-1.93-2.4A1.88,1.88,0,0,0,35.34,108a1.93,1.93,0,0,0-.08.48Z"/>
            <path class="cls-2" d="M41.78,105.77h1.44L44.39,109c.16.48.44,1.27.59,1.78h0c.14-.48.5-1.51.76-2.22l1-2.81h1.45l.45,6.45H47.59l-.14-3.08c0-.69-.1-1.52-.12-2.3h0c-.18.58-.35,1.1-.71,2.09l-1.24,3.25h-.85L43.34,109c-.2-.62-.48-1.55-.64-2.15h-.05c0,.76-.07,1.61-.11,2.32l-.16,3H41.3Z"/>
            <path class="cls-2" d="M53.83,112.22l-.09-.81h0a2.39,2.39,0,0,1-2,1,1.84,1.84,0,0,1-2-1.85c0-1.56,1.39-2.42,3.88-2.4V108a1.33,1.33,0,0,0-1.47-1.49,3.26,3.26,0,0,0-1.68.48l-.26-.77a4,4,0,0,1,2.12-.58c2,0,2.45,1.35,2.45,2.64v2.42a9,9,0,0,0,.11,1.54Zm-.17-3.29c-1.28,0-2.74.2-2.74,1.45A1,1,0,0,0,52,111.5a1.6,1.6,0,0,0,1.56-1.08,1.21,1.21,0,0,0,.07-.37Z"/>
            <path class="cls-2" d="M57.84,105.77v5.53h3v-5.53H62v5.57l.66,0-.06,2.92h-.91l-.05-2.06H56.68v-6.45Z"/>
            <path class="cls-2" d="M65.15,105.77v2.72c0,1,0,1.67-.07,2.59h0c.39-.79.61-1.24,1-2l2-3.33h1.37v6.45H68.43v-2.73c0-1,0-1.6.08-2.64h0c-.41.83-.69,1.35-1.07,2-.61,1-1.32,2.24-2,3.37H64v-6.45Z"/>
            <path class="cls-2" d="M77.32,108.94a3.15,3.15,0,0,1-3.21,3.43,3.07,3.07,0,0,1-3.1-3.32,3.16,3.16,0,0,1,3.2-3.43A3.06,3.06,0,0,1,77.32,108.94ZM72.2,109c0,1.41.81,2.48,2,2.48s2-1,2-2.51c0-1.09-.55-2.48-1.93-2.48S72.2,107.78,72.2,109Z"/>
            <path class="cls-2" d="M80,105.77v2.6H83v-2.6h1.16v6.45H83V109.3H80v2.92H78.8v-6.45Z"/>
            <path class="cls-2" d="M87.26,105.77v2.6h3.07v-2.6h1.16v6.45H90.33V109.3H87.26v2.92H86.1v-6.45Z"/>
            <path class="cls-2" d="M94.57,105.77V108a5.82,5.82,0,0,1,1.05-.08c1.39,0,2.79.57,2.79,2.16a1.79,1.79,0,0,1-.67,1.49,4,4,0,0,1-2.6.75,16.94,16.94,0,0,1-1.73-.09v-6.43Zm0,5.64a6,6,0,0,0,.81,0c.9,0,1.87-.37,1.87-1.37s-.93-1.36-1.81-1.36a5.27,5.27,0,0,0-.87.07Zm5.81-5.64v6.45H99.22v-6.45Z"/>
            <path class="cls-2" d="M103.41,105.77v2.72c0,1,0,1.67-.07,2.59h0c.39-.79.61-1.24,1-2l2-3.33h1.38v6.45h-1.12v-2.73c0-1,0-1.6.08-2.64h0c-.42.83-.7,1.35-1.07,2-.61,1-1.32,2.24-2,3.37H102.3v-6.45Zm.76-2.63c0,.58.32,1,.85,1s.84-.43.91-1h.84A1.62,1.62,0,0,1,105,104.8a1.56,1.56,0,0,1-1.68-1.66Z"/>
            <path class="cls-2" d="M117.9,105.77v6.45h-1.17V106.7h-3v5.52h-1.16v-6.45Z"/>
            <path class="cls-2" d="M125.67,108.94a3.15,3.15,0,0,1-3.21,3.43,3.07,3.07,0,0,1-3.1-3.32,3.16,3.16,0,0,1,3.2-3.43A3.06,3.06,0,0,1,125.67,108.94Zm-5.12.07c0,1.41.81,2.48,2,2.48s2-1,2-2.51c0-1.09-.55-2.48-1.93-2.48S120.55,107.78,120.55,109Z"/>
            <path class="cls-2" d="M127.17,107.88c0-.83,0-1.5,0-2.11h1l.06,1.11h0a2.54,2.54,0,0,1,2.3-1.26c1.56,0,2.73,1.32,2.73,3.28,0,2.32-1.41,3.47-2.93,3.47a2.26,2.26,0,0,1-2-1h0v3.51h-1.16Zm1.16,1.72a2.42,2.42,0,0,0,.06.48,1.81,1.81,0,0,0,1.76,1.37c1.24,0,2-1,2-2.49,0-1.3-.68-2.4-1.92-2.4a1.88,1.88,0,0,0-1.78,1.45,1.93,1.93,0,0,0-.08.48Z"/>
            <path class="cls-2" d="M139,105.77v.93h-2v5.52h-1.16V106.7h-2v-.93Z"/>
            <path class="cls-2" d="M143.57,112.22l-.09-.81h0a2.39,2.39,0,0,1-2,1,1.84,1.84,0,0,1-2-1.85c0-1.56,1.39-2.42,3.88-2.4V108a1.33,1.33,0,0,0-1.47-1.49,3.26,3.26,0,0,0-1.68.48l-.26-.77a4,4,0,0,1,2.12-.58c2,0,2.45,1.35,2.45,2.64v2.42a9,9,0,0,0,.11,1.54Zm-.17-3.29c-1.28,0-2.74.2-2.74,1.45a1,1,0,0,0,1.11,1.12,1.6,1.6,0,0,0,1.56-1.08,1.21,1.21,0,0,0,.07-.37Z"/>
            <path class="cls-2" d="M151.37,105.77v6.45h-1.16v-5.53H148v1.68c0,1.81-.18,3-1,3.57a1.85,1.85,0,0,1-1.28.4l-.12-.92a1.47,1.47,0,0,0,.64-.26c.6-.44.67-1.35.67-2.79v-2.6Z"/>
            <path class="cls-2" d="M162.49,111.93a5.83,5.83,0,0,1-2.38.43,4.2,4.2,0,0,1-4.44-4.55,4.48,4.48,0,0,1,4.7-4.72,4.77,4.77,0,0,1,2.13.4l-.28,1a4.1,4.1,0,0,0-1.81-.38c-2.11,0-3.51,1.35-3.51,3.71a3.27,3.27,0,0,0,3.46,3.61,4.61,4.61,0,0,0,1.89-.37Z"/>
            <path class="cls-2" d="M163.9,105.85a13.6,13.6,0,0,1,2-.15c1.08,0,2.87.18,2.87,1.62a1.52,1.52,0,0,1-1.35,1.45v0c.95.13,1.64.66,1.64,1.6,0,1.69-2.13,1.9-3.4,1.9-.72,0-1.46,0-1.81-.08Zm1.11,5.6a7,7,0,0,0,.94,0c.79,0,2-.18,2-1.12s-.93-1.13-2-1.13H165Zm0-3h.88c.87,0,1.76-.26,1.76-1s-.56-.94-1.73-.94a7.64,7.64,0,0,0-.91,0Z"/>
            <path class="cls-2" d="M171.27,109.21a2.07,2.07,0,0,0,2.21,2.24,4.34,4.34,0,0,0,1.79-.33l.2.84a5.33,5.33,0,0,1-2.15.4,3,3,0,0,1-3.17-3.26c0-1.94,1.15-3.48,3-3.48,2.11,0,2.67,1.86,2.67,3a5.29,5.29,0,0,1,0,.55Zm3.44-.84a1.66,1.66,0,0,0-1.62-1.91,2,2,0,0,0-1.81,1.91Z"/>
            <path class="cls-2" d="M181.63,105.77v.93h-2v5.52h-1.16V106.7h-2v-.93Z"/>
            <path class="cls-2" d="M187.43,105.77v6.45h-1.16v-5.53h-2.21v1.68c0,1.81-.18,3-1,3.57a1.85,1.85,0,0,1-1.28.4l-.12-.92a1.47,1.47,0,0,0,.64-.26c.6-.44.67-1.35.67-2.79v-2.6Z"/>
            <path class="cls-2" d="M195.22,108.94a3.16,3.16,0,0,1-3.22,3.43,3.06,3.06,0,0,1-3.09-3.32,3.15,3.15,0,0,1,3.2-3.43A3.06,3.06,0,0,1,195.22,108.94Zm-5.13.07c0,1.41.82,2.48,2,2.48s2-1,2-2.51c0-1.09-.55-2.48-1.94-2.48S190.09,107.78,190.09,109Z"/>
            <path class="cls-2" d="M200.65,105.77v1h-2.8v5.5h-1.16v-6.45Z"/>
            <path class="cls-2" d="M207.45,108.94a3.15,3.15,0,0,1-3.21,3.43,3.07,3.07,0,0,1-3.1-3.32,3.16,3.16,0,0,1,3.21-3.43A3.05,3.05,0,0,1,207.45,108.94Zm-5.12.07c0,1.41.82,2.48,2,2.48s2-1,2-2.51c0-1.09-.54-2.48-1.93-2.48S202.33,107.78,202.33,109Z"/>
            <path class="cls-2" d="M209,107.88c0-.83,0-1.5-.06-2.11H210l0,1.11h0a2.53,2.53,0,0,1,2.29-1.26c1.56,0,2.73,1.32,2.73,3.28,0,2.32-1.41,3.47-2.93,3.47a2.27,2.27,0,0,1-2-1h0v3.51H209Zm1.16,1.72a2.44,2.44,0,0,0,0,.48,1.81,1.81,0,0,0,1.76,1.37c1.24,0,2-1,2-2.49,0-1.3-.68-2.4-1.92-2.4A1.86,1.86,0,0,0,210.2,108a1.93,1.93,0,0,0-.08.48Z"/>
            <path class="cls-2" d="M221.17,112a4.32,4.32,0,0,1-1.85.38,3.07,3.07,0,0,1-3.22-3.3,3.28,3.28,0,0,1,3.47-3.42,4,4,0,0,1,1.63.33l-.27.91a2.72,2.72,0,0,0-1.36-.31,2.43,2.43,0,0,0,0,4.85,3.26,3.26,0,0,0,1.44-.32Z"/>
            <path class="cls-2" d="M223.73,105.77v2.8H224l2.42-2.8h1.43l-2.81,2.92c1,.11,1.66.8,2.17,2a13.28,13.28,0,0,0,.69,1.57h-1.22a7.73,7.73,0,0,1-.6-1.32,2.1,2.1,0,0,0-2.14-1.52h-.22v2.84h-1.16v-6.45Z"/>
            <path class="cls-2" d="M234.74,108.94a3.15,3.15,0,0,1-3.21,3.43,3.07,3.07,0,0,1-3.1-3.32,3.16,3.16,0,0,1,3.2-3.43A3.06,3.06,0,0,1,234.74,108.94Zm-5.12.07c0,1.41.81,2.48,2,2.48s2-1,2-2.51c0-1.09-.55-2.48-1.93-2.48S229.62,107.78,229.62,109Z"/>
            <path class="cls-2" d="M240.18,105.77v1h-2.8v5.5h-1.16v-6.45Z"/>
            <path class="cls-2" d="M247,108.94a3.16,3.16,0,0,1-3.22,3.43,3.07,3.07,0,0,1-3.09-3.32,3.15,3.15,0,0,1,3.2-3.43A3.06,3.06,0,0,1,247,108.94Zm-5.12.07c0,1.41.81,2.48,2,2.48s2-1,2-2.51c0-1.09-.55-2.48-1.94-2.48S241.86,107.78,241.86,109Z"/>
            <path class="cls-2" d="M251.33,107.88c0-.83,0-1.5-.05-2.11h1.05l.06,1.11h0a2.54,2.54,0,0,1,2.3-1.26c1.56,0,2.73,1.32,2.73,3.28,0,2.32-1.41,3.47-2.93,3.47a2.26,2.26,0,0,1-2-1h0v3.51h-1.16Zm1.16,1.72a2.42,2.42,0,0,0,.06.48,1.81,1.81,0,0,0,1.76,1.37c1.24,0,2-1,2-2.49,0-1.3-.68-2.4-1.92-2.4a1.88,1.88,0,0,0-1.78,1.45,1.93,1.93,0,0,0-.08.48Z"/>
            <path class="cls-2" d="M262.52,112.22l-.09-.81h0a2.41,2.41,0,0,1-2,1,1.84,1.84,0,0,1-2-1.85c0-1.56,1.39-2.42,3.88-2.4V108a1.33,1.33,0,0,0-1.47-1.49,3.26,3.26,0,0,0-1.68.48l-.26-.77a4,4,0,0,1,2.12-.58c2,0,2.45,1.35,2.45,2.64v2.42a9,9,0,0,0,.11,1.54Zm-.17-3.29c-1.28,0-2.74.2-2.74,1.45a1,1,0,0,0,1.11,1.12,1.6,1.6,0,0,0,1.56-1.08,1.21,1.21,0,0,0,.07-.37Z"/>
            <path class="cls-2" d="M266.48,105.77v2.72c0,1,0,1.67-.07,2.59h0c.39-.79.62-1.24,1-2l2-3.33h1.37v6.45h-1.12v-2.73c0-1,0-1.6.08-2.64h0c-.41.83-.69,1.35-1.07,2-.61,1-1.32,2.24-2,3.37h-1.35v-6.45Zm.76-2.63c0,.58.32,1,.85,1s.84-.43.91-1h.84a1.61,1.61,0,0,1-1.77,1.66,1.57,1.57,0,0,1-1.69-1.66Z"/>
            <path class="cls-2" d="M278.65,108.94a3.15,3.15,0,0,1-3.21,3.43,3.07,3.07,0,0,1-3.1-3.32,3.16,3.16,0,0,1,3.2-3.43A3.06,3.06,0,0,1,278.65,108.94Zm-5.12.07c0,1.41.81,2.48,2,2.48s2-1,2-2.51c0-1.09-.55-2.48-1.93-2.48S273.53,107.78,273.53,109Z"/>
            <path class="cls-2" d="M281.29,105.77v2.6h3.07v-2.6h1.16v6.45h-1.16V109.3h-3.07v2.92h-1.16v-6.45Z"/>
            <path class="cls-2" d="M291,112.22l-.09-.81h0a2.39,2.39,0,0,1-2,1,1.84,1.84,0,0,1-2-1.85c0-1.56,1.39-2.42,3.88-2.4V108a1.32,1.32,0,0,0-1.46-1.49,3.24,3.24,0,0,0-1.68.48l-.27-.77a4,4,0,0,1,2.12-.58c2,0,2.45,1.35,2.45,2.64v2.42a9,9,0,0,0,.11,1.54Zm-.17-3.29c-1.28,0-2.73.2-2.73,1.45a1,1,0,0,0,1.1,1.12,1.6,1.6,0,0,0,1.56-1.08,1.21,1.21,0,0,0,.07-.37Z"/>
            <path class="cls-2" d="M298,103.24v4h.36l3.08-4h1.4l-3.4,4.12a3,3,0,0,1,2.52,2.32,24.9,24.9,0,0,0,1,2.54h-1.25a15.57,15.57,0,0,1-.82-2.12,2.43,2.43,0,0,0-2.51-2H298v4.12H296.8v-9Z"/>
            <path class="cls-2" d="M307.75,112.22l-.09-.81h0a2.41,2.41,0,0,1-2,1,1.84,1.84,0,0,1-2-1.85c0-1.56,1.39-2.42,3.88-2.4V108a1.33,1.33,0,0,0-1.47-1.49,3.26,3.26,0,0,0-1.68.48l-.26-.77a4,4,0,0,1,2.12-.58c2,0,2.45,1.35,2.45,2.64v2.42a9,9,0,0,0,.11,1.54Zm-.17-3.29c-1.28,0-2.74.2-2.74,1.45A1,1,0,0,0,306,111.5a1.6,1.6,0,0,0,1.56-1.08,1.21,1.21,0,0,0,.07-.37Z"/>
            <path class="cls-2" d="M315.55,105.77v6.45h-1.16v-5.53h-2.22v1.68c0,1.81-.17,3-1,3.57a1.85,1.85,0,0,1-1.28.4l-.12-.92a1.47,1.47,0,0,0,.64-.26c.6-.44.67-1.35.67-2.79v-2.6Z"/>
            <path class="cls-2" d="M318.57,105.77v2.72c0,1,0,1.67-.06,2.59h0c.38-.79.61-1.24,1-2l2-3.33H323v6.45h-1.12v-2.73c0-1,0-1.6.08-2.64h0c-.41.83-.69,1.35-1.06,2-.62,1-1.32,2.24-2,3.37h-1.34v-6.45Z"/>
            <path class="cls-2" d="M326,105.77v2.6h3.07v-2.6h1.16v6.45h-1.16V109.3H326v2.92h-1.16v-6.45Z"/>
            <path class="cls-2" d="M333.29,105.77v2.72c0,1,0,1.67-.07,2.59h0c.39-.79.62-1.24,1-2l2-3.33h1.37v6.45h-1.12v-2.73c0-1,0-1.6.08-2.64h0c-.41.83-.69,1.35-1.07,2-.61,1-1.32,2.24-2,3.37h-1.35v-6.45Z"/>
            <path class="cls-2" d="M340.75,105.77v2.6h3.07v-2.6H345v6.45h-1.16V109.3h-3.07v2.92h-1.16v-6.45Z"/>
            <path class="cls-2" d="M350.86,105.77v1h-2.8v5.5H346.9v-6.45Z"/>
            <path class="cls-2" d="M352,107.88c0-.83,0-1.5-.05-2.11H353l.06,1.11h0a2.54,2.54,0,0,1,2.3-1.26c1.56,0,2.73,1.32,2.73,3.28,0,2.32-1.41,3.47-2.93,3.47a2.26,2.26,0,0,1-2-1h0v3.51H352Zm1.16,1.72a2.42,2.42,0,0,0,.06.48,1.81,1.81,0,0,0,1.76,1.37c1.24,0,2-1,2-2.49,0-1.3-.68-2.4-1.92-2.4a1.88,1.88,0,0,0-1.78,1.45,1.93,1.93,0,0,0-.08.48Z"/>
            <path class="cls-2" d="M363.18,112.22l-.1-.81h0a2.39,2.39,0,0,1-2,1,1.83,1.83,0,0,1-2-1.85c0-1.56,1.38-2.42,3.88-2.4V108a1.33,1.33,0,0,0-1.47-1.49,3.24,3.24,0,0,0-1.68.48l-.27-.77a4,4,0,0,1,2.12-.58c2,0,2.46,1.35,2.46,2.64v2.42a9.05,9.05,0,0,0,.1,1.54Zm-.18-3.29c-1.28,0-2.73.2-2.73,1.45a1,1,0,0,0,1.11,1.12,1.6,1.6,0,0,0,1.56-1.08,1.19,1.19,0,0,0,.06-.37Z"/>
            <path class="cls-2" d="M371.06,105.77v5.57l.66,0-.06,2.92h-.92l-.06-2.06h-4.46l-.06,2.06h-.92l-.05-2.92.54,0a4.77,4.77,0,0,0,.65-1.32,8.59,8.59,0,0,0,.37-2.57v-1.68Zm-3.27,2a8.7,8.7,0,0,1-.33,2.4,6.57,6.57,0,0,1-.52,1.2h3v-4.67h-2.12Z"/>
            <path class="cls-2" d="M377.7,112a4.34,4.34,0,0,1-1.86.38,3.06,3.06,0,0,1-3.21-3.3,3.28,3.28,0,0,1,3.46-3.42,3.92,3.92,0,0,1,1.63.33l-.26.91a2.79,2.79,0,0,0-1.37-.31,2.43,2.43,0,0,0,0,4.85,3.35,3.35,0,0,0,1.45-.32Z"/>
            <path class="cls-2" d="M380.25,105.77v2.8h.28l2.43-2.8h1.43l-2.82,2.92c1,.11,1.67.8,2.18,2a13.28,13.28,0,0,0,.69,1.57h-1.23a8.6,8.6,0,0,1-.6-1.32,2.09,2.09,0,0,0-2.13-1.52h-.23v2.84h-1.16v-6.45Z"/>
            <path class="cls-2" d="M391.27,108.94a3.16,3.16,0,0,1-3.22,3.43,3.06,3.06,0,0,1-3.09-3.32,3.15,3.15,0,0,1,3.2-3.43A3.06,3.06,0,0,1,391.27,108.94Zm-5.12.07c0,1.41.81,2.48,2,2.48s2-1,2-2.51c0-1.09-.55-2.48-1.94-2.48S386.15,107.78,386.15,109Z"/>
            <path class="cls-2" d="M393.85,105.77v2.72c0,1,0,1.67-.07,2.59h0c.39-.79.62-1.24,1-2l2-3.33h1.37v6.45h-1.12v-2.73c0-1,0-1.6.08-2.64h0c-.41.83-.69,1.35-1.07,2-.61,1-1.32,2.24-2,3.37h-1.35v-6.45Zm.76-2.63c0,.58.32,1,.85,1s.84-.43.91-1h.84a1.61,1.61,0,0,1-1.77,1.66,1.55,1.55,0,0,1-1.68-1.66Z"/>
            <path class="cls-2" d="M408.88,108.94a3.16,3.16,0,0,1-3.22,3.43,3.06,3.06,0,0,1-3.09-3.32,3.15,3.15,0,0,1,3.2-3.43A3.06,3.06,0,0,1,408.88,108.94Zm-5.13.07c0,1.41.82,2.48,2,2.48s2-1,2-2.51c0-1.09-.55-2.48-1.94-2.48S403.75,107.78,403.75,109Z"/>
            <path class="cls-2" d="M415.26,103.58a9,9,0,0,1-1.35.3,3.14,3.14,0,0,0-2.29,1.21,4.73,4.73,0,0,0-.71,2.13h0a2.45,2.45,0,0,1,2.24-1.45c1.59,0,2.75,1.13,2.75,3.19s-1.09,3.41-3,3.41c-2.26,0-3-2.17-3-4.32a5.72,5.72,0,0,1,1-3.57,3.85,3.85,0,0,1,2.77-1.52,9.4,9.4,0,0,0,1.6-.35ZM413,106.64a1.57,1.57,0,0,0-1.45.88,2.83,2.83,0,0,0-.32,1.37c0,1.07.52,2.6,1.8,2.6s1.77-1.25,1.77-2.44S414.34,106.64,413,106.64Z"/>
            <path class="cls-2" d="M422.34,105.77v6.45h-1.16v-5.53H419v1.68c0,1.81-.17,3-1,3.57a1.85,1.85,0,0,1-1.28.4l-.12-.92a1.47,1.47,0,0,0,.64-.26c.6-.44.67-1.35.67-2.79v-2.6Z"/>
            <path class="cls-2" d="M427.86,112.22l-.1-.81h0a2.39,2.39,0,0,1-2,1,1.83,1.83,0,0,1-2-1.85c0-1.56,1.38-2.42,3.88-2.4V108a1.33,1.33,0,0,0-1.47-1.49,3.24,3.24,0,0,0-1.68.48l-.27-.77a4,4,0,0,1,2.12-.58c2,0,2.46,1.35,2.46,2.64v2.42a9.05,9.05,0,0,0,.1,1.54Zm-.18-3.29c-1.28,0-2.73.2-2.73,1.45a1,1,0,0,0,1.11,1.12,1.6,1.6,0,0,0,1.56-1.08,1.19,1.19,0,0,0,.06-.37Z"/>
            <path class="cls-2" d="M435.34,112a4.34,4.34,0,0,1-1.86.38,3.07,3.07,0,0,1-3.21-3.3,3.28,3.28,0,0,1,3.47-3.42,3.91,3.91,0,0,1,1.62.33l-.26.91a2.72,2.72,0,0,0-1.36-.31,2.43,2.43,0,0,0,0,4.85,3.33,3.33,0,0,0,1.44-.32Z"/>
            <path class="cls-2" d="M441.31,105.77v.93h-2v5.52h-1.16V106.7h-2v-.93Z"/>
            <path class="cls-2" d="M443.44,105.77v2.72c0,1,0,1.67-.07,2.59h0c.39-.79.62-1.24,1-2l2-3.33h1.37v6.45h-1.12v-2.73c0-1,0-1.6.08-2.64h0c-.41.83-.69,1.35-1.07,2-.61,1-1.32,2.24-2,3.37h-1.35v-6.45Z"/>
            <line class="cls-3" x1="1.64" y1="94.01" x2="355.98" y2="94.01"/>
            <line class="cls-3" x1="386.49" y1="94.01" x2="448.8" y2="94.01"/>
        </g>
    </g>
</svg>
