<svg xmlns="http://www.w3.org/2000/svg" viewBox="0 0 38 38"><defs><style>.cls-1{fill:#fb6719;}.cls-2{fill:#fff;}</style></defs><title>ok-</title><g id="Layer_2" data-name="Layer 2"><g id="Layer_1-2" data-name="Layer 1"><circle class="cls-1" cx="19" cy="19" r="19"/><path class="cls-2" d="M14.952,15.021v.209h.015v.134h.015v.1H15v.089h.015v.09h.015v.06h.015v.074h.014v.06h.015V15.9h.015v.06H15.1v.045h.015v.059h.015v.045h.015v.045h.015V16.2h.015l.015.09h.014v.029h.015v.045h.015v.03h.015v.045h.015v.03h.015v.044H15.3l.03.09h.015v.029h.014v.03h.015v.03h.015v.045l.03.015v.03h.015v.029h.015v.03h.015v.03h.015v.03h.015v.029l.029.015.015.06.03.015.015.059h.015l.015.045.03.015v.03h.015l.014.045.03.015v.029l.03.015.015.045.045.03v.03l.044.029v.03l.06.045v.03l.075.059v.03l.134.119v.03l.119.1.03.045h.029l.12.134h.03l.059.075h.03l.045.059h.029l.03.045h.03l.03.045h.03l.029.045h.03l.015.029.045.015v.015h.03l.015.03.044.015v.015l.06.015.015.029.059.015.015.03.06.015v.015h.03v.015h.03v.015h.029v.015h.03V18.6h.03v.014l.06.015v.015h.029v.015h.03v.015l.09.03v.015h.044v.015h.03v.015l.075.015v.014h.044v.015h.03v.015h.045v.015H17.8v.015h.044v.015h.045v.015h.045v.015h.059V18.9h.045v.014h.06v.015h.059v.015h.06v.015l.134.015v.015h.089V19h.09v.015h.1v.015h.134v.015h.224a1.16,1.16,0,0,0,.357.015v-.015h.224V19.03h.134v-.015h.1V19h.09v-.015h.089V18.97l.134-.015V18.94l.179-.03V18.9l.105-.015v-.015h.044v-.015H20.5v-.015h.045v-.015l.089-.015v-.015h.03v-.015h.045v-.014l.074-.015v-.015h.03v-.015h.045V18.7l.089-.03v-.015h.03v-.015H21v-.015l.074-.015.015-.029h.03v-.015h.03v-.015h.029v-.015h.03v-.015h.03v-.015h.03l.015-.03.059-.015.015-.029.06-.015V18.4l.045-.015.014-.03h.03v-.015l.045-.015.015-.029h.03l.029-.045h.03l.015-.03h.03l.045-.06h.03l.014-.029.045-.015.06-.075.044-.015.105-.119h.03l.119-.134.074-.06v-.029l.119-.105v-.03l.075-.059v-.03l.06-.045v-.03l.044-.029v-.03l.045-.03v-.03l.03-.015v-.029l.03-.015v-.03l.029-.015v-.03l.03-.015v-.03l.03-.015v-.029l.03-.015.03-.09.029-.015.03-.089.03-.015.03-.089h.015V16.7h.015l.03-.09h.014v-.044h.015v-.03h.015l.015-.06h.015v-.044h.015v-.03H23.1q.1-.306.194-.611v-.075h.014v-.059h.015v-.09h.015v-.089h.015l.03-.268v-.149a2.026,2.026,0,0,0,.015-.477h-.015V14.4h-.015v-.134h-.015v-.089h-.015v-.09h-.015v-.089h-.015v-.06H23.3v-.074q-.082-.269-.164-.537h-.015v-.03H23.1v-.045h-.015v-.029h-.015v-.045h-.015v-.03h-.015l-.015-.074h-.015l-.029-.09H22.97V12.95h-.015v-.03H22.94v-.03h-.015v-.03H22.91v-.03H22.9V12.8l-.03-.014-.029-.09-.03-.015-.015-.059-.03-.015-.015-.045h-.015l-.015-.06-.029-.015v-.029l-.045-.03V12.4l-.03-.015v-.03l-.045-.029v-.03l-.044-.03v-.03l-.045-.03v-.029l-.045-.03V12.13l-.03-.015v-.03L22.3,12v-.03l-.134-.119-.134-.149H22l-.089-.105h-.03l-.015-.029h-.015l-.03-.045h-.03l-.029-.045h-.03l-.03-.044h-.03l-.03-.045h-.029l-.015-.03h-.03l-.03-.045h-.03l-.015-.03-.044-.014v-.015l-.06-.015-.015-.03-.059-.015-.015-.03-.09-.03L21.2,11.1h-.029v-.015h-.03v-.015h-.03v-.015h-.03v-.015h-.03v-.015h-.03v-.015l-.089-.03v-.014l-.074-.015v-.015h-.03v-.015h-.045v-.015h-.03v-.015h-.044a4.192,4.192,0,0,0-1.789-.3c-.038.034-.12,0-.179.015v.015H18.6v.014h-.1v.016H18.41v.014h-.075c-.078.024-.179.049-.253.075h-.06v.015h-.045v.015h-.044v.015l-.149.029v.015h-.03v.015l-.09.015v.015h-.029v.015H17.59v.015h-.03v.015h-.045a4.374,4.374,0,0,0-2.28,2.324l-.015.09h-.015v.03h-.014l-.015.089h-.015V13.5h-.015v.045h-.015v.044h-.015L15.1,13.7h-.015v.059c-.025.075-.051.176-.074.254V14.1H15l-.03.328h-.015v.208a1.494,1.494,0,0,0-.015.388Zm2.474-.268v-.164h.015V14.5h.015v-.074h.015v-.06h.015v-.044H17.5l.03-.135h.015v-.029h.015v-.045h.015l.03-.09h.015l.015-.059.029-.015.015-.06.03-.015v-.029l.03-.015V13.8l.06-.045v-.029l.074-.06v-.03l.03-.015.074-.089h.03l.06-.075h.03l.044-.059h.03l.015-.03.045-.015v-.015l.059-.015.015-.03.06-.015v-.014l.089-.03v-.015H18.5V13.2h.03v-.015l.089-.015v-.015h.045v-.015h.045v-.015h.059v-.015h.075V13.1h.089v-.015h.149l.149-.015v.015h.179V13.1H19.5v.014h.075v.015h.06v.015h.044v.015h.045v.015h.045v.015h.044V13.2h.03v.015h.045v.015l.089.03v.014l.06.015.015.03.059.015.015.03h.03l.03.045h.03l.03.044h.029l.06.075h.03l.015.029.089.075v.03l.075.06v.029l.044.03v.03l.045.03v.029l.03.015.015.06.03.015.014.059h.015l.03.09h.015v.045h.015v.029h.015v.045h.015v.045h.015v.045h.015v.044h.014v.06a1.432,1.432,0,0,1,.015.73l-.015.134h-.014v.045h-.015v.045h-.015v.044h-.015v.045h-.015l-.015.06h-.015l-.045.134-.029.015-.015.059H20.66l-.015.045-.03.015v.03l-.03.015v.029l-.044.03v.03l-.03.015a.3.3,0,0,0-.09.119.3.3,0,0,0-.119.09l-.015.029h-.03l-.044.06h-.03l-.015.03h-.03l-.015.03-.044.014v.015l-.09.03v.015h-.03v.015H19.93v.015l-.09.03v.015H19.8v.015h-.029v.014l-.1.015v.015h-.044v.015h-.06v.015l-.179.015a1.342,1.342,0,0,1-.6-.03h-.06v-.015h-.044V16.5l-.105-.015v-.014h-.029v-.015H18.5v-.015l-.089-.03v-.015h-.03v-.015h-.03v-.015h-.03v-.015h-.03v-.015h-.029v-.015l-.045-.014-.015-.03h-.03l-.015-.03h-.03l-.044-.06h-.03l-.015-.029a.543.543,0,0,1-.209-.209L17.8,15.93V15.9l-.045-.03v-.029l-.03-.015V15.8l-.03-.015-.015-.045h-.015l-.014-.059-.03-.015-.045-.134H17.56l-.015-.06H17.53v-.045h-.015v-.044H17.5v-.045h-.014v-.045h-.015V15.23h-.015v-.075h-.015v-.089h-.015v-.194h-.015C17.4,14.822,17.423,14.787,17.426,14.753Zm6.483,5.633v-.149h-.015v-.075h-.015V20.1h-.015v-.045h-.015l-.015-.09h-.015l-.015-.059h-.015v-.03h-.015v-.03H23.76V19.82h-.015v-.03l-.03-.015v-.03l-.045-.03v-.03l-.045-.029v-.03l-.059-.045-.075-.089h-.029l-.045-.06h-.03l-.015-.03h-.03l-.015-.03H23.3v-.014h-.03v-.015h-.03v-.015h-.03v-.015h-.03V19.3h-.03v-.015l-.268-.074h-.134v-.015l-.343.03v.014l-.193.045V19.3l-.09.03v.015h-.03v.015l-.059.014-.015.03-.06.015-.015.03h-.029v.015h-.03l-.015.03h-.03v.015h-.03v.015h-.029v.014h-.03l-.015.03H21.7v.015h-.03V19.6h-.03v.015h-.029v.015h-.03v.015h-.03v.015h-.03v.015h-.03v.014l-.089.03v.015H21.36v.015h-.03v.015l-.059.015v.015h-.045v.015H21.2v.015l-.074.015v.014l-.09.015v.015H21v.015l-.09.015v.015h-.045v.015h-.044v.015h-.045v.014h-.045v.016l-.1.014v.015l-.119.015v.015h-.045v.015h-.074v.015h-.06v.015h-.075V20.1h-.074v.015h-.075v.014h-.089v.015h-.1v.015H19.8v.015h-.149v.015h-.208v.015h-.253l-.641-.03v-.015h-.12v-.015h-.1c-.07-.02-.17-.038-.238-.059h-.075v-.015l-.134-.015v-.015l-.164-.03V20h-.045v-.014h-.059v-.016H17.56v-.014h-.045v-.015h-.044v-.015h-.045v-.015h-.045v-.015l-.089-.015v-.015h-.03v-.015h-.045v-.014h-.029V19.82h-.045v-.015h-.03V19.79h-.045v-.015l-.059-.015v-.015h-.045V19.73h-.03v-.015l-.059-.015v-.015h-.03v-.014h-.03v-.015h-.03v-.015h-.03v-.015h-.029v-.015H16.7V19.6h-.03v-.015h-.03v-.015h-.03v-.015h-.03l-.014-.029-.09-.03-.015-.03-.059-.015-.015-.03-.06-.015-.015-.03-.089-.029v-.015l-.09-.03v-.015h-.044v-.015H16.04a1.153,1.153,0,0,0-.447-.074c-.031.027-.085,0-.134.015l-.268.074V19.3l-.06.015v.015H15.1v.015h-.03v.015h-.029v.014h-.03L15,19.4h-.03l-.015.03h-.03l-.044.06h-.03l-.045.059-.089.075v.03l-.06.044v.03l-.03.015v.03l-.03.015v.03H14.58v.029h-.015v.03H14.55v.03h-.015v.03H14.52v.029h-.015l-.015.09a1.121,1.121,0,0,0,0,.76l.015.089h.015l.03.09h.015v.03h.015l.014.059.03.015v.03l.03.015v.03l.045.03v.029l.119.105.045.059h.03l.044.06h.03l.015.03.06.015.014.029.06.015.015.03.06.015.014.03h.03v.015h.03l.015.029h.03v.015h.03V21.7h.029v.015h.03l.015.03h.03v.015h.03v.015h.03v.015h.029V21.8h.03v.015h.03v.014h.03v.015h.03v.015h.029v.015h.03v.015h.03v.015h.03v.015l.059.015v.015l.06.015v.014h.03V22h.045v.015l.059.015v.015h.03v.015H16.1v.015l.059.015V22.1H16.2v.015h.03v.014l.074.015v.015h.045v.015h.03v.015l.089.015v.015h.03v.015l.134.03v.015h.045v.014h.045v.015h.044v.015h.045v.015h.045v.015l.089.015v.015h.06V22.4h.044v.015h.06v.014h.06v.015l.283.06v.015c-.035.02-.048.048-.075.075l-.179.178-.387.373-.149.164-.864.849c-.115.119-.229.239-.343.358a2.728,2.728,0,0,0-.626.715v.045a1.054,1.054,0,0,0-.075.7l.015.135h.015v.044H14.8v.03h.015v.045h.015l.03.089h.015v.03h.015l.014.06.03.014v.03l.03.015.015.045.06.045v.029l.029.015.06.075h.03l.044.059h.03l.03.045.06.015.015.03.059.015v.015l.09.029V26.9h.044v.015h.03v.015h.045v.015l.134.015a1.054,1.054,0,0,0,.7-.075h.045v-.014l.06-.015v-.015h.029l.015-.03.06-.015.03-.045h.03l.029-.045h.03l.418-.432.447-.432.745-.76.447-.432.089-.1a1.588,1.588,0,0,0,.239-.239c.076.021.141.127.193.179l.06.045.387.4,1.625,1.61.149.163h.03l.029.045h.03l.03.045.06.015.015.03h.029v.015l.06.015v.014H21.9V26.9h.03v.015h.044v.015h.045v.015h.045v.015h.074a1,1,0,0,0,.373.03v-.015h.1v-.015h.06v-.015h.059v-.015l.09-.015V26.9l.089-.029v-.015h.03v-.015h.03v-.015l.059-.015.015-.03h.03l.03-.045h.03l.044-.059h.03l.015-.03.075-.06v-.029l.059-.045.015-.045.03-.015v-.03l.03-.014.015-.06h.015v-.03h.014l.03-.089h.015v-.045h.015v-.03h.015l.03-.179a.884.884,0,0,0,.03-.357H23.6v-.105h-.015v-.059h-.015v-.06h-.015v-.044h-.015V25.3h-.015v-.03h-.015v-.045h-.015l-.015-.059h-.014v-.03l-.03-.015-.015-.06-.03-.015v-.029l-.06-.045a3.65,3.65,0,0,0-.432-.447l-.462-.477-.76-.745-.432-.447-.1-.09-.179-.178c-.027-.027-.04-.055-.075-.075.033-.031.072-.014.12-.03v-.015h.059v-.015h.06v-.015l.164-.029V22.4l.1-.015v-.015h.045v-.015h.044v-.015h.045v-.015h.045v-.015h.045v-.015h.044v-.014H21.7v-.015l.134-.03a8.42,8.42,0,0,0,1.1-.522h.03V21.7H23v-.015h.029v-.015h.03l.015-.029.06-.015.014-.03.06-.015.015-.03.06-.015L23.3,21.5l.059-.015.03-.045h.03l.03-.045h.029l.045-.059.119-.105v-.029l.045-.03v-.03l.03-.015V21.1l.03-.015.015-.059h.014V21h.015l.03-.09h.015l.075-.268V20.49h.014v-.1Z"/></g></g></svg>