<svg xmlns="http://www.w3.org/2000/svg" viewBox="0 0 38 38"><defs><style>.cls-1{fill:#fb6719;}.cls-2{fill:#fff;}</style></defs><title>ok-</title><g id="Layer_2" data-name="Layer 2"><g id="Layer_1-2" data-name="Layer 1"><circle class="cls-1" cx="19" cy="19" r="19"/><path class="cls-2" d="M15,15v.21h0v.13h0v.11h0v.09h0v.09h0v.06h0v.07h0v.06h0v.06h0V16h0v0h0v.06h0v.05h0v0h0v.05h0v.09h0v0h0v0h0v0h0v.05h0v0h0v0h0l0,.09h0v0h0v0h0v0h0v0l0,0v0h0v0h0v0h0v0h0v0h0v0h0V17l0,0,0,.06h0l0,0,0,0v0h0l0,0,0,0v0h0v.05l0,0v0l0,0v0l.06,0v0l.08.06v0l.13.12v0l.12.1,0,0h0l.12.13h0l.06.08h0l0,.06h0l0,0h0l0,0h0l0,.05h0l0,0h0v0h0v0h.05v0H17v0l.06,0,0,0h.06v0h.06v0h.06v0h0l.06,0h0v0h0l.09,0v0h.07v0h.07v0h.08v0h.09v0h.09v0H18v0h.11v0h.12v0h.22v0h.19v0H19a1.06,1.06,0,0,0,.36,0v0h.36v0h.19v0h.22v0l.18,0h0l.11,0h0v0h.09v0h.09v0h.07v0h.08v0h.07v0l.09,0h0v0h0l.08,0v0h.06v0h.06v0h.06l0,0,.06,0v0h.06v0h0l0,0h0v0h0l0,0h0l0-.05h0v0h0l.05,0h0v0l.05,0,.06-.07,0,0,.11-.12h0l.11-.13.08-.06v0l.12-.11v0l.07-.06v0l.06,0v0l.05,0v0l0,0v0h0v0l0,0v0h0v0l0,0v0h0v0l0,0,0-.09h0l0-.09,0,0,0-.09h0v0h0l0-.08h0v-.05h0v0h0l0-.06h0v0h0v0h0c.07-.21.13-.41.2-.61v-.08h0v-.06h0v-.09h0v-.09h0l0-.27v-.14a2.53,2.53,0,0,0,0-.48h0v-.2h0v-.13h0v-.09h0v-.09h0V14h0v-.06h0v-.07l-.17-.54h0v0h0v0h0v0h0v-.05h0v0h0v-.07h0L23,13h0v0h0v0h0v0h0v0h0v0h0v0h0l0-.09,0,0,0-.06h0v0h0V12.5h0v0l-.05,0v0l0,0v0l0,0v0l-.05,0v0l0,0v0l-.05,0h0l0,0v0L22.3,12v0l-.13-.12L22,11.7h0l-.09-.11h0v0h0l0,0h0l0,0h0l0,0h0l0,0h0v0h0l0,0h0l0,0h0v0h-.06v0l-.06,0,0,0-.09,0v0h-.06v0h-.06v0H21v0l-.09,0h0l-.08,0h0v0h-.07v0H20.7a4.28,4.28,0,0,0-1.78-.3s-.12,0-.18,0H18.6v0h-.19v0h-.07l-.26.07H18v0h-.09v0l-.15,0h0v0h-.09v0h-.07v0h-.07a4.37,4.37,0,0,0-2.28,2.33l0,.09h0v0h0v.09h0v0h0v.05h0v0h0l0,.1h0v.06c0,.08-.05.18-.08.26v.09h0l0,.32h0v.21a1.67,1.67,0,0,0,0,.39Zm2.48-.27v-.16h0V14.5h0v-.08h0v-.05h0v0h0l0-.13h0v0h0v-.05h0l0-.09h0V14h0l0-.06,0,0v0h0v0l.06-.05v0l.07-.06v0h0l.08-.09h0l.06-.07h0l0-.06h0l0,0,0,0h0l.06,0,0,0h.05v0l.09,0h.05v0h0l.09,0h0v0h.11v0h.16v0h.48v0h.16v0h.11v0h.09v0h.07v0h.05l.08,0v0H20l0,0,.06,0v0h0l0,0h0l0,.05h0l.06.07h0l0,0,.09.07v0l.07.06v0l.05,0v0l0,0v0l0,0V14h0l0,.06h0l0,.09h0v.05h0v0h0v0h0v0h0v0h0v0h0v.05a1.43,1.43,0,0,1,0,.74v.13h0v0h0v.05h0v0h0v.05h0v.06h0l0,.13,0,0,0,.06h0v0l0,0v0h0v0l-.05,0v0h0a.54.54,0,0,0-.09.12.54.54,0,0,0-.12.09v0h0l-.05.06h0v0h0l0,0,0,0h0l-.09,0v0h-.06v0l-.09,0h0v0h0l-.11,0h0v0h-.06l-.18,0a1.49,1.49,0,0,1-.6,0h-.06v0h0l-.11,0h0v0h0l-.09,0v0h-.06v0h-.06v0h0l0,0,0,0h0v0h0l-.05-.06h0v0a.54.54,0,0,0-.12-.09.54.54,0,0,0-.09-.12h0v0l-.05,0v0h0v0l0,0v0h0v-.06l0,0,0-.13h0v-.06h0v-.05h0v0h0v-.05h0v0h0v-.06h0v-.07h0v-.09h0v-.2h0A.23.23,0,0,1,17.43,14.75Zm6.48,5.64v-.15h0v-.08h0V20.1h0v0h0l0-.09h0l0-.06h0v0h0v0h0v0h0v0l0,0v0l0,0v0l0,0v0l-.06-.05-.08-.09h0l0-.06h0l0,0h0v0h-.06v0h-.06v0h-.06v0l-.27-.07h-.13v0l-.35,0v0l-.19,0v0l-.09,0h0v0H22v0l-.06,0,0,0h-.06v0h0v0h-.06v0h0l0,0h-.06v0h-.06v0h-.06v0h-.06v0l-.08,0h-.05v0h-.09v0H21.2v0h-.08v0H21v0h0l-.09,0h0v0h-.09v0h-.05l-.1,0h0l-.12,0h0v0h-.14v0h-.15v0H20v0H19.8v0h-.36v0h-.26l-.64,0v0h-.22l-.24-.06H18v0h-.14v0l-.16,0h-.05v0h-.1v0h-.09v0h-.09v0h-.09v0h-.07v0h-.08v0h-.07v0H17v0h0l-.06,0h0v0h-.05v0h-.06v0h-.06v0h-.06v0h0l0,0-.09,0v0H16.4l0,0-.06,0v0l-.09,0h0l-.09,0v0H16a1.21,1.21,0,0,0-.45-.08s-.08,0-.13,0l-.27.07v0h-.06v0h-.06v0H15v0h0l0,0h0l0,.06h0l0,.06-.09.08v0l-.06,0v0l0,0v0l0,0v0h0v0h0v0h0v0h0v0h0v0h0l0,.09a1.1,1.1,0,0,0,0,.76l0,.09h0l0,.09h0v0h0v.06h0v0l0,0v0l0,0v0l.12.1,0,.06h0l0,.06h0v0H15l0,0,.06,0v0h.06l0,0h0v0h0v0h.06v0h.06v0h0v0h.06v0h.06v0h.06v0h.06v0h.06v0h0l.06,0h0l.06,0h0v0H16L16,22h.07v0h.06v0h.07v0h.08v0h.07v0h.09v0h0l.14,0v0h.09v0h.09v0h0l.09,0H17v0h.1v0h.06l.29.06v0a.27.27,0,0,0-.08.07l-.18.18-.38.37-.15.17-.87.85-.34.35a2.89,2.89,0,0,0-.63.72v0a1,1,0,0,0-.07.7v.14h0v0h0v0h0v.05h0l0,.09h0v0h0l0,.06h0v0l0,0v0l.06,0v0h0l.06.07h0l.05.06h0l0,.05h.05l0,0,.06,0h0l.09,0v0h.07v0h0l.13,0a1.08,1.08,0,0,0,.7-.08h0l.06,0h0v0l.06,0,0,0h0l0-.05h0l.42-.43.44-.43.75-.76.45-.43.09-.11c.07-.07.19-.15.23-.23s.15.12.2.17l.06.05.39.4,1.62,1.61.15.16h0l0,.05h0l0,0,.06,0v0h0l.06,0h0v0H22v0h.09v0h.08a1.07,1.07,0,0,0,.37,0v0h.16v0h.06l.09,0h0l.09,0v0H23v0H23v0h0l0-.05h0l.05-.06h0v0l.08-.05v0l.06,0v0l0,0v0h0l0-.06h0v0h0l0-.09h0v-.05h0v0h0l0-.18a.79.79,0,0,0,0-.35h0v-.11h0v-.06h0v-.06h0v0h0V25.3h0v0h0v0h0v-.06h0v0l0,0v-.05l0,0v0l-.06,0a6.14,6.14,0,0,0-.43-.45l-.47-.48-.76-.74-.43-.45-.1-.09L21,22.59a.27.27,0,0,0-.08-.07s.08,0,.12,0v0h.12v0l.17,0h0l.1,0h0v0h.09v0h.09v0h.09v0l.14,0a7.42,7.42,0,0,0,1.1-.52H23v0h.06v0l.06,0,0,0h.06v0l.06,0,0,0h.06l0,0h0l0,0h0l0-.06.12-.1v0l.05,0v0l0,0v0h0l0-.06h0v0h0l0-.09h0l.08-.27v-.15h0v-.1Z"/></g></g></svg>