<svg xmlns="http://www.w3.org/2000/svg" viewBox="0 0 38 38"><defs><style>.cls-1{fill:#54abec;}.cls-2{fill:#fff;fill-rule:evenodd;}</style></defs><title>tw-</title><g id="Layer_2" data-name="Layer 2"><g id="Layer_1-2" data-name="Layer 1"><circle class="cls-1" cx="19" cy="19" r="19"/><path class="cls-2" d="M25.86,14.88a.78.78,0,0,0,.24-.05h.08v0h.09v0h.07v0h.16v0l.15,0v0h.1v0h.06v0l.12,0v0h0l.1,0v0h.07v0h0a.38.38,0,0,1,.19,0l0,0h0a.31.31,0,0,0,0,.07l-.07.06v0l-.07.06v0l0,0v0l-.08.07v0l-.13.11v0l0,0a.38.38,0,0,0-.11.14h0a.68.68,0,0,1-.26.27l-.14.16h0l-.09.11h0l-.06.07h0l0,.05h0l0,.05h0l-.08.13a3.52,3.52,0,0,1,0,.92v.34h0v.14h0v.13h0v.1h0v.09h0V18c0,.15-.07.35-.13.5v.07h0v.05h0l0,.23h0v0h0l0,.21h0v0h0l-.06.23h0v0h0v.06h0l0,.16h0l0,.07h0l0,.16h0v0h0l0,.08h0l0,.1h0l0,.07h0v0h0v.05h0v0h0v0l0,0v0h0l0,.09,0,0v0h0v0h0l0,.11,0,0,0,.08h0v0l0,0v0h0v0h0v0h0v0l0,0v0h0v0h0v0h0v0l-.05,0,0,.07h0v0l0,0v0l0,0v.07l0,0v0h0v0l-.06,0,0,.07h0v0l-.05,0v0l0,0v0l-.05,0v0h0v0l-.07.05v0L24,22v0l-.06,0v0l-.07.05v0l-.07.05v0l-.14.12v0l-.12.1v0l-.18.16a3.41,3.41,0,0,1-.39.37l-.14.16h0l-.07.09h0l-.07.09h0l-.07.09h0l0,.05h0l0,0h0l-.06.07h0l0,0h0l0,.06h0l0,0-.05,0v0h0l0,0h0l0,0h0l0,0h0l0,0h0v0h-.08v0l-.06,0h0l-.1,0v0l-.06,0v0h0v0h0v0h-.07v0h0v0l-.07,0,0,0-.16.06,0,0-.16.06,0,0-.09,0v0h-.05l-.11,0v0h0v0H20.5v0h0v0l-.16,0v0h0v0l-.09,0v0l-.18,0v0h0v0l-.18,0v0h-.05v0h-.11v0l-.27.06h-.07v0l-.17,0v0H19v0l-.23,0v0h-.09v0h-.18v0l-.35,0a3.21,3.21,0,0,1-.84.07A5.49,5.49,0,0,1,16,25.29h-.2v0h-.14v0h-.18v0h-.08v0l-.22,0v0H15v0H15v0l-.16,0h-.05v0h-.06v0H14.6v0l-.12,0h-.05v0h-.06v0h0v0h-.11v0h-.05v0h-.05v0l-.16,0v0h0v0l-.16,0v0h0v0l-.08,0h0l-.1,0v0h0v0h0v0h-.09v0h0v0l-.1,0v0h-.06v0h0v0h0l0,0-.12,0,0,0h0v0h0v0h0v0h0v0h0v0H12.7v0h0l0,0-.14-.08,0-.08h0v0s.14,0,.19,0h.57c.07,0,.29,0,.39,0v0h.13v0h.14v0h.21v0h.09v0l.16,0v0h.16v0h0v0h.06v0l.25,0v0h0l.18,0v0h0v0l.16,0v0l.08,0h0v0l.18-.06,0,0h.05v0h0v0h.08v0h0v0h0v0l.1,0,0,0,.09,0,0,0,.05,0v0l.11,0,0,0h0v0h0v0h0l0-.06h.07l0-.06h.07l0,0h0v0a.23.23,0,0,1,.1-.05l0-.07a.45.45,0,0,0-.25,0s-.12,0-.18,0v0h-.12v0l-.14,0H16v0h0v0l-.12,0h0l-.07,0v0l-.11,0v0l-.11,0v0h0v0l-.11,0,0,0-.1,0,0,0h0v0h0l0,0h0l0-.06h0v0h0L15,22h0l-.07-.09h0l-.12-.15-.22-.19v0l0,0v0l-.05,0v0l-.05,0v0l0,0v0l-.05,0,0-.1,0,0,0-.06h0l0-.08,0,0-.06-.16h0v0h0a.44.44,0,0,1,0-.21.26.26,0,0,1,.14,0c.05,0,.21,0,.29,0l.69,0h0l.09,0V20.4l-.12-.07H15l-.14,0v0h0v0h0v0h-.09v0l-.07,0v0h0l-.09,0v0l-.06,0v0l-.11,0,0,0h0v0h0l-.05-.07h0l0,0h0l0-.05h0L14,19.75h0l-.25-.27-.12-.11v0l-.08-.05v0l0,0v0l-.07-.06,0-.07,0,0,0-.11h0v-.05l0,0,0-.09h0v0l0,0v0h0l0-.1h0l0-.11h0V18.4h0v0h0l0-.18a2.59,2.59,0,0,1-.12-.83.25.25,0,0,1,.1,0s0,0,.08,0v0h0l0,0h0v0h.06v0h.09v0h0v0h0v0h.13v0h.05v0h.06v0h.07v0h.09a2.21,2.21,0,0,0,.4.07l0-.06h0c0-.08-.08-.08-.14-.12l0-.05h0l-.09-.11-.19-.18v0l-.09-.07v0l-.06,0v0l0,0v0l0,0v0h0v0l0,0v-.05h0l0-.11h0v0h0V16.5h0v0l0,0v0h0l0-.11h0v0h0l0-.07h0l0-.13h0V16h0V16h0v-.05h0v-.09h0v-.07h0v-.09h0v-.1h0V15.4a2.09,2.09,0,0,1,0-.87l.05-.32h0v0h0v-.12h0V14h0l0-.07h0l0-.11h0l0-.07h0c.05-.1,0-.19.17-.19l.07.11h0v0l0,0h0l.09.07v0l.23.21v0l0,0,.09.1h0l0,0h0l.21.23h0l.14.16h0l.07.09h0l.07.09h0l0,.07h0l0,0h0l0,0h0v0h0l.05.07h0l0,0h0l0,.05.07,0,0,.06h0l0,0h0l0,0h.05v0l.08,0,0,.05h0v0h0v0h0v0l.11,0v0h.05l0,0,.11,0v0h0v0h0v0H16v0h0v0h.05l.07,0,0,0h0v0h.09v0h0l0,0h0l.1,0,0,0,.09,0h.05v0h0v0l.1,0v0l.11,0v0l.07,0h0l.16,0v0h.09v0h.05v0h.07v0h0l.16,0v0l.18,0a8.61,8.61,0,0,0,.94.23h.14l.34.08a2.12,2.12,0,0,0,.5,0s0,0,0-.05h0v0c0-.06,0-.09,0-.16a2.56,2.56,0,0,1,0-.69l.07-.5h0l0-.14h0v0h0l0-.14h0v0h0l0-.07h0v-.05h0v0h0v-.05l0,0v0h0v0h0v-.06h0v0h0v0h0v0h0v0l.06,0v-.07l0,0v0l.05,0,0-.07.07-.06v0l.11-.09v0l.09-.07.17-.19h0l.07-.09h0l0,0h0l0-.06H21v0l.11,0,0-.05h0v0h.07v0h0l0,0h0v0h.09l0,0h0v0h.11v0l.11,0v0h.14v0h.05v0h0v0H22l.28,0a2.16,2.16,0,0,1,1,0h.11v0h.08v0h.16v0h0v0l.2,0v0l.07,0v0l.1,0h0l.11,0v0h0l.1,0,0,0,.11,0v0h.07l0,0h0l0,0h0l0,0h0l0,0,.05,0,.07.09h0l.07.09.14.12a1.36,1.36,0,0,0,.48-.1h.09v0l.11,0v0h0l.18,0v0H26v0l.13,0v0l.1,0v0l.11,0v0l.11,0v0h0v0h.06v0h.07v0h0l0,0h.09v0h0l0,0h0a.43.43,0,0,0,.1-.09l.06,0a.34.34,0,0,1,0,.11h0l0,.09h0v.06h0v0h0v0h0l0,.08h0v.05l0,0,0,0h0l0,.11-.05,0,0,.07-.05,0v0l0,0v0l-.07.05v0l-.11.08v0l-.07.05-.12.15h0l0,0h0l-.07.09-.08,0,0,.05h0v0h0l0,0Z"/></g></g></svg>