<svg xmlns="http://www.w3.org/2000/svg" viewBox="0 0 38 38"><defs><style>.cls-1{fill:#54abec;}.cls-2{fill:#fff;fill-rule:evenodd;}</style></defs><title>tw-</title><g id="Layer_2" data-name="Layer 2"><g id="Layer_1-2" data-name="Layer 1"><circle class="cls-1" cx="19" cy="19" r="19"/><path class="cls-2" d="M25.865,14.881a.683.683,0,0,0,.231-.054h.088V14.81h.089v-.018h.071v-.018h.071v-.018H26.5v-.017l.142-.018V14.7H26.7v-.018h.054v-.017h.053V14.65l.124-.018v-.018h.036V14.6l.106-.018v-.018h.072v-.018h.035v-.018a.436.436,0,0,1,.2-.035l.018.053h.018a.353.353,0,0,0-.018.071l-.071.054V14.7l-.071.053v.036l-.035.018v.035l-.089.071v.036L27,15.058v.036l-.035.018a.354.354,0,0,0-.107.142h-.035a.8.8,0,0,1-.267.266l-.142.16H26.38l-.089.107h-.036l-.053.071h-.035l-.036.053H26.1l-.036.053h-.035l-.089.125a3.457,3.457,0,0,1-.018.923v.338H25.9v.142h-.018v.124h-.017v.107h-.018v.088h-.018v.16c-.046.154-.073.348-.124.5v.071h-.018v.053h-.018l-.035.231h-.018v.035H25.6l-.035.214h-.018v.035h-.018l-.053.231h-.018v.035h-.018v.054h-.017l-.036.16h-.018l-.017.071h-.018l-.036.159h-.018v.036h-.017l-.018.071h-.018l-.018.107H25.19l-.018.071h-.018v.035h-.018v.054h-.017v.035H25.1v.036l-.036.017v.054h-.017l-.018.089-.036.017v.036h-.017v.035h-.018l-.036.107-.035.018-.018.088h-.018v.036l-.035.018v.035H24.8v.036h-.018v.035h-.018v.036l-.035.018v.035H24.71v.036h-.018v.035h-.017v.036l-.054.035-.017.071h-.018v.036l-.036.017v.036l-.035.018-.018.071-.036.018v.035l-.035.018v.035l-.053.036-.018.071-.036.018v.035l-.053.036V21.7l-.035.018v.035l-.054.036v.036l-.035.017v.036l-.071.053v.036L24.017,22v.036l-.053.035v.036l-.071.053V22.2l-.071.053v.035l-.142.125v.035l-.124.107v.035l-.178.16a3.21,3.21,0,0,1-.391.373l-.142.16H22.81l-.071.089H22.7l-.071.089H22.6l-.071.089H22.49l-.036.053h-.035l-.018.035h-.035l-.054.071h-.035l-.018.036h-.036l-.035.053h-.036l-.017.036-.054.017v.018h-.035l-.018.036h-.035l-.018.035h-.036l-.017.036h-.036l-.018.035h-.035l-.018.036-.071.018-.018.035-.053.018v.018l-.107.035v.018l-.053.018-.018.035H21.46v.018h-.036v.018h-.035v.017h-.036v.018h-.035v.018l-.071.018-.018.035-.16.054-.018.035-.16.053-.017.036-.089.018V24.6h-.054v.018l-.106.036v.017h-.036v.018L20.5,24.7v.018h-.036v.017l-.16.036v.018H20.27v.018l-.089.017v.018L20,24.881V24.9h-.035v.018l-.178.036v.017h-.053v.018h-.053v.018H19.63v.018l-.266.053v.018h-.071v.018l-.178.017v.018h-.071v.018h-.053v.018l-.231.017v.018h-.089v.018l-.178.018v.017l-.355.018a3.322,3.322,0,0,1-.835.071,5.507,5.507,0,0,1-1.314-.071h-.2v-.018h-.142v-.017h-.089v-.018h-.089v-.018h-.089V25.2l-.213-.017v-.018H15.1v-.018H15.03v-.018h-.071v-.017l-.16-.018v-.018h-.053v-.018h-.054V25.04H14.6v-.017l-.125-.018v-.018h-.053v-.018h-.053v-.017h-.054v-.018h-.071v-.018h-.035V24.9H14.16v-.017h-.054v-.018l-.159-.036V24.81h-.036v-.018l-.16-.036v-.018h-.035v-.017l-.072-.018v-.018l-.106-.018V24.65H13.5v-.018h-.035v-.018h-.036V24.6h-.053v-.017h-.035v-.018l-.107-.036v-.017h-.053V24.49h-.036v-.018h-.035l-.018-.035L12.97,24.4l-.018-.036h-.036v-.017h-.035V24.33h-.036v-.018H12.81v-.018h-.036l-.018-.035H12.7v-.018h-.035l-.018-.035-.142-.071-.018-.089h.018V24.01c.023-.033.141-.017.2-.017h.569c.065-.054.289-.007.39-.036v-.018h.125v-.017h.142V23.9l.213-.018v-.018h.089V23.85l.16-.017v-.018h.071V23.8h.088v-.018H14.6v-.017h.053v-.018l.249-.053v-.018h.035v-.018l.178-.035V23.6h.035v-.018l.16-.035v-.018l.071-.018V23.5h.036v-.017l.177-.054.018-.035h.053v-.018h.036v-.018h.035v-.018h.036v-.017h.035V23.3h.036v-.018l.107-.036.017-.035.089-.018.018-.035.053-.018v-.018l.107-.035.017-.036h.036v-.018h.036L16.344,23h.036l.035-.053.071-.018.036-.053.071-.018.018-.036h.035V22.8a.245.245,0,0,1,.107-.053l.018-.071a.437.437,0,0,0-.249-.035c-.039-.034-.121-.018-.178-.036v-.018H16.22v-.017l-.142-.018v-.018h-.053v-.018h-.054V22.5l-.124-.018v-.018l-.071-.018V22.43l-.107-.018v-.018l-.106-.035v-.018h-.036v-.018l-.106-.036-.018-.035-.107-.036-.017-.035h-.036v-.018h-.035l-.018-.035h-.036l-.035-.054h-.036l-.017-.035H15.03l-.036-.053h-.035l-.071-.089h-.036l-.124-.143c-.071-.064-.142-.13-.213-.2v-.035l-.053-.036v-.035l-.054-.036v-.035l-.053-.036V21.31l-.036-.017v-.036l-.053-.035-.035-.107L14.2,21.1l-.018-.053H14.16l-.018-.089-.036-.017-.053-.16h-.018v-.036h-.017a.443.443,0,0,1-.036-.213.227.227,0,0,1,.142-.035c.045.039.207.017.284.017l.693-.017v-.018l.089-.018v-.053a1.077,1.077,0,0,0-.124-.071h-.072v-.018l-.142-.018V20.28h-.035v-.017h-.036v-.018h-.035v-.018h-.054v-.018l-.071-.017v-.018h-.035v-.018l-.089-.018v-.017l-.053-.018-.018-.036-.107-.035L14.3,20h-.036v-.018h-.035l-.054-.071h-.035l-.018-.035h-.035l-.036-.054h-.035l-.054-.071h-.035l-.249-.266-.124-.107v-.035l-.071-.053V19.25l-.036-.018V19.2l-.071-.053-.018-.071-.053-.036-.035-.107h-.018l-.018-.053-.036-.018-.017-.088h-.018v-.036l-.036-.018v-.035h-.017l-.018-.107h-.018l-.035-.106h-.018V18.4h-.018v-.035h-.018l-.035-.178a2.807,2.807,0,0,1-.125-.834.276.276,0,0,1,.107-.018c.032.035.035.015.071.035v.018h.036l.017.036h.036v.017h.053v.018H13.2v.018h.036v.018h.053v.018h.036v.017h.053v.018h.071v.018H13.5v.018h.054V17.6h.071v.018h.089a1.416,1.416,0,0,0,.408.071l.018-.053h-.018c-.023-.085-.079-.081-.142-.124l-.035-.054h-.036l-.089-.106-.195-.178v-.035l-.089-.072V17.03l-.053-.036v-.035l-.036-.018v-.035L13.4,16.87v-.035l-.036-.018v-.036l-.035-.017-.018-.054h-.018l-.035-.106-.036-.018V16.55H13.2V16.5h-.017v-.036l-.036-.017v-.036h-.018l-.017-.106h-.018v-.036h-.018l-.018-.071h-.017l-.018-.124h-.018v-.054h-.018v-.053H12.97v-.053h-.018v-.089h-.018v-.071h-.018v-.089H12.9v-.106h-.018V15.4a2.292,2.292,0,0,1,.035-.871l.054-.319h.017V14.17h.018l.018-.124h.018v-.053h.017l.018-.071h.018l.018-.107h.017l.018-.071h.018c.054-.1.021-.192.178-.2l.071.106.035.018v.035l.036.018v.018l.088.071v.036l.231.213V14.1l.036.018.089.107h.035l.018.035H14l.213.231h.035l.143.16h.035l.071.089h.036l.071.088h.035l.053.071h.036l.018.036h.035l.018.036h.018l.018.035h.035l.053.071h.036l.018.036h.035l.036.053.071.018.035.053h.036l.018.036h.035l.018.035.053.018v.018l.071.017.036.054h.035l.018.035h.036v.018h.035l.018.035.106.036v.018l.054.018.017.035.107.036.018.035H15.9V15.7h.036v.018h.035v.017h.036l.018.036h.035v.018h.053V15.8l.071.018.018.036h.036v.017h.053v.018h.036v.018h.035l.018.035h.035v.018l.107.018.018.035.089.018v.018h.053v.018h.035v.018l.107.035v.018l.106.018v.017L17,16.2v.018l.159.035v.018h.054v.018h.035V16.3H17.3v.017h.071v.018h.036v.018l.16.035v.018l.178.036c.286.108.633.142.941.231h.142c.1.029.238.041.337.071a2.474,2.474,0,0,0,.5.018c.049-.013.039-.006.053-.054h.018v-.018c-.037-.057-.014-.088-.036-.159a2.744,2.744,0,0,1-.035-.693l.071-.5h.018l.017-.143h.018v-.035h.018l.018-.142h.017V14.97h.018l.018-.072H19.9v-.053h.017V14.81h.018v-.054l.036-.017V14.7h.017v-.035H20v-.054l.036-.017v-.036h.018v-.036h.017V14.49h.018v-.036l.053-.035.018-.071.036-.018V14.3l.053-.036.018-.071.071-.053V14.1l.106-.089v-.035l.089-.071c.059-.065.119-.13.178-.2h.035l.071-.088h.036l.035-.054h.036l.035-.053.054-.018.017-.035.107-.036.036-.053h.035v-.018h.036v-.018h.035v-.017h.036l.017-.036h.036v-.018h.035v-.017h.054l.017-.036h.036v-.018l.107-.017v-.018l.106-.036v-.017l.142-.018v-.018h.054v-.018h.053v-.018h.053v-.017l.284-.036a2.108,2.108,0,0,1,.977,0H23.4V13h.089v.018h.106v.017h.053v.018h.036v.018l.2.036v.017l.071.018v.018l.107.018v.017l.106.036v.018H24.2v.017l.107.036.017.035.107.036.018.036.071.017.018.036h.035l.036.053h.035l.018.036h.035l.018.035.053.018.071.089h.036l.071.089.142.124a1.315,1.315,0,0,0,.48-.107h.089V13.78l.106-.018v-.018h.036v-.018l.177-.035v-.018l.071-.018v-.017l.125-.018V13.6l.106-.036v-.017l.107-.018v-.018l.106-.035V13.46h.036v-.018h.053v-.018l.071-.017v-.018h.036l.017-.036h.054v-.018h.035v-.017h.036l.018-.036h.035a.692.692,0,0,0,.107-.089l.053.018a.3.3,0,0,1,.018.107h-.018l-.018.089-.035.017v.054h-.018v.053h-.018v.035l-.035.018-.018.071h-.018v.053l-.035.018-.018.054h-.018l-.036.106-.053.036-.018.071-.053.035v.036l-.035.018v.035l-.071.053v.036l-.107.089v.035l-.071.053-.124.142H26.22l-.018.036h-.035l-.071.089-.071.018-.036.053h-.036l-.017.035H25.9v.018l-.035.018Z"/></g></g></svg>