<svg xmlns="http://www.w3.org/2000/svg" viewBox="0 0 75 75"><defs><style>.cls-1{fill:#006ed3;}.cls-2{fill:#fff;}</style></defs><title>up-KURSOR</title><g id="Layer_2" data-name="Layer 2"><g id="Layer_1-2" data-name="Layer 1"><rect class="cls-1" width="75" height="75"/><path class="cls-2" d="M32.66,40.44l4.68-9.36L42,40.44Z"/><path class="cls-2" d="M23.74,60.44h-.91V56.75H18.69v3.69h-.91V52.59h.91v3.34h4.14V52.59h.91Z"/><path class="cls-2" d="M30.83,60.44l-1-2.49H26.7l-1,2.49h-.93l3.11-7.88h.77l3.08,7.88Zm-1.26-3.32-.92-2.43c-.11-.31-.24-.68-.36-1.13A9.88,9.88,0,0,1,28,54.69L27,57.12Z"/><path class="cls-2" d="M32.85,52.59h2.22a4.18,4.18,0,0,1,2.26.47,1.64,1.64,0,0,1,.7,1.48,1.7,1.7,0,0,1-.39,1.15,1.9,1.9,0,0,1-1.13.59v0c1.19.2,1.78.83,1.78,1.88a2,2,0,0,1-.71,1.64,3,3,0,0,1-2,.59H32.85ZM33.77,56h1.5a2.47,2.47,0,0,0,1.39-.3,1.17,1.17,0,0,0,.43-1,1,1,0,0,0-.48-1,3,3,0,0,0-1.5-.29H33.77Zm0,.78v2.94H35.4a2.38,2.38,0,0,0,1.44-.37,1.36,1.36,0,0,0,.48-1.15,1.23,1.23,0,0,0-.5-1.08,2.58,2.58,0,0,0-1.49-.34Z"/><path class="cls-2" d="M44.36,60.44H40V52.59h4.38v.81H40.89v2.53h3.26v.81H40.89v2.89h3.47Z"/><path class="cls-2" d="M51.08,54.88a2.17,2.17,0,0,1-.82,1.83,3.64,3.64,0,0,1-2.32.65H47v3.08H46.1V52.59h2C50.1,52.59,51.08,53.35,51.08,54.88ZM47,56.57h.82a3.08,3.08,0,0,0,1.76-.39,1.45,1.45,0,0,0,.54-1.26,1.36,1.36,0,0,0-.51-1.16A2.7,2.7,0,0,0,48,53.38H47Z"/><path class="cls-2" d="M58,60.44h-1L54.8,57l-2.15,3.45h-1l2.61-4.1-2.43-3.75h1l2,3.11,2-3.11h1l-2.43,3.72Z"/></g></g></svg>