<svg xmlns="http://www.w3.org/2000/svg" viewBox="0 0 75 75"><defs></defs><title>up</title><g id="Layer_2" data-name="Layer 2"><g id="Layer_1-2" data-name="Layer 1"><rect width="75" height="75"/><path class="cls-1" d="M32.656,40.444l4.688-9.359,4.672,9.359Z"/><path class="cls-1" d="M23.738,60.444h-.912V56.749H18.69v3.7h-.913V52.591h.913v3.341h4.136V52.591h.912Z"/><path class="cls-1" d="M30.828,60.444l-.978-2.5H26.7l-.967,2.5h-.923l3.1-7.885h.769l3.088,7.885Zm-1.262-3.319-.914-2.434c-.117-.308-.24-.685-.365-1.133a9.9,9.9,0,0,1-.338,1.133l-.924,2.434Z"/><path class="cls-1" d="M32.854,52.591H35.07a4.18,4.18,0,0,1,2.262.468,1.65,1.65,0,0,1,.7,1.477,1.711,1.711,0,0,1-.39,1.152,1.878,1.878,0,0,1-1.135.588v.054q1.787.306,1.787,1.88a2.017,2.017,0,0,1-.711,1.643,3.032,3.032,0,0,1-1.99.591H32.854Zm.912,3.363h1.5a2.439,2.439,0,0,0,1.39-.3,1.171,1.171,0,0,0,.426-1.023,1.038,1.038,0,0,0-.473-.954,2.968,2.968,0,0,0-1.5-.292H33.766Zm0,.773v2.938H35.4a2.331,2.331,0,0,0,1.432-.368,1.359,1.359,0,0,0,.48-1.152,1.219,1.219,0,0,0-.492-1.074,2.628,2.628,0,0,0-1.5-.344Z"/><path class="cls-1" d="M44.357,60.444H39.98V52.591h4.377V53.4H40.893v2.53h3.255v.806H40.893v2.889h3.464Z"/><path class="cls-1" d="M51.078,54.879a2.2,2.2,0,0,1-.814,1.834,3.682,3.682,0,0,1-2.329.643h-.923v3.088H46.1V52.591h2.035Q51.076,52.591,51.078,54.879Zm-4.066,1.692h.822a3.055,3.055,0,0,0,1.756-.392,1.446,1.446,0,0,0,.543-1.257,1.356,1.356,0,0,0-.51-1.16,2.673,2.673,0,0,0-1.59-.381H47.012Z"/><path class="cls-1" d="M57.947,60.444H56.91L54.8,56.99,52.65,60.444h-.966l2.611-4.1-2.434-3.749h1.01L54.82,55.7l1.967-3.11h.971l-2.432,3.717Z"/></g></g></svg>