<svg xmlns="http://www.w3.org/2000/svg" viewBox="0 0 44 13"><defs><style>.cls-1{fill:#006ed3;}</style></defs><title>version-KURSOR</title><g id="Layer_2" data-name="Layer 2"><g id="Layer_1-2" data-name="Layer 1"><path class="cls-1" d="M43.894,1.424A10.721,10.721,0,0,0,41.538.705a27.548,27.548,0,0,0-5.9-.7,34.829,34.829,0,0,0-6.294.461,19.68,19.68,0,0,0-3.137.793c-1,.366-2.136,1.205-2.74,1.453A4.365,4.365,0,0,1,22,2.843a4.365,4.365,0,0,1-1.468-.136c-.6-.248-1.737-1.087-2.74-1.453A19.68,19.68,0,0,0,14.655.461,34.829,34.829,0,0,0,8.361,0a27.548,27.548,0,0,0-5.9.705,10.721,10.721,0,0,0-2.356.719A8.637,8.637,0,0,0,.192,4.553c.153.239.363.287.477.571A8.047,8.047,0,0,1,1,6.328c.174.766.3,1.635.543,2.383a4.111,4.111,0,0,0,.439,1.028c1.115,1.626,3.648,2.443,5.427,2.83a20.494,20.494,0,0,0,7.912.088,6.269,6.269,0,0,0,2-.845C18.218,11.244,19,9.123,19.4,7.977c.131-.456.263-1,.394-1.456.292-.466,1.173-.68,1.832-.793A1.55,1.55,0,0,1,22,5.714a1.55,1.55,0,0,1,.377.014c.659.113,1.541.327,1.832.793.131.455.263,1,.394,1.456.4,1.146,1.179,3.267,2.071,3.835a6.269,6.269,0,0,0,2,.845,20.5,20.5,0,0,0,7.913-.088c1.779-.387,4.311-1.2,5.426-2.83a4.111,4.111,0,0,0,.439-1.028c.242-.748.369-1.617.543-2.383a8.047,8.047,0,0,1,.336-1.2c.114-.284.324-.332.477-.571A8.637,8.637,0,0,0,43.894,1.424ZM18.876,6.58A15.689,15.689,0,0,1,18.3,8.594a6,6,0,0,1-1.395,2.44A6.463,6.463,0,0,1,14.509,12a18.1,18.1,0,0,1-8.644-.687A5.315,5.315,0,0,1,3.1,9.592a4.554,4.554,0,0,1-.5-1.116A12.5,12.5,0,0,1,2.051,5.54c-.036-.794-.2-2.566.469-3.117a4.2,4.2,0,0,1,1.733-.587,24.336,24.336,0,0,1,6.3-.308,22.575,22.575,0,0,1,6.461,1.143,2.929,2.929,0,0,1,1.928,1.443A6.373,6.373,0,0,1,18.876,6.58ZM41.949,5.54A12.5,12.5,0,0,1,41.4,8.476a4.554,4.554,0,0,1-.5,1.116,5.315,5.315,0,0,1-2.765,1.717A18.1,18.1,0,0,1,29.492,12a6.461,6.461,0,0,1-2.395-.962A6,6,0,0,1,25.7,8.594a15.689,15.689,0,0,1-.578-2.014,6.373,6.373,0,0,1-.068-2.466,2.929,2.929,0,0,1,1.928-1.443,22.575,22.575,0,0,1,6.461-1.143,24.336,24.336,0,0,1,6.3.308,4.2,4.2,0,0,1,1.733.587C42.147,2.974,41.985,4.746,41.949,5.54Z"/></g></g></svg>