<svg xmlns="http://www.w3.org/2000/svg" viewBox="0 0 44 13"><title>version</title><g id="Layer_2" data-name="Layer 2"><g id="Layer_1-2" data-name="Layer 1"><path d="M43.89,1.42A11.12,11.12,0,0,0,41.54.7a28,28,0,0,0-5.9-.7,34.79,34.79,0,0,0-6.29.46,19.76,19.76,0,0,0-3.14.79c-1,.37-2.14,1.21-2.74,1.46A4.49,4.49,0,0,1,22,2.84a4.49,4.49,0,0,1-1.47-.13c-.6-.25-1.74-1.09-2.74-1.46A19.76,19.76,0,0,0,14.65.46,34.79,34.79,0,0,0,8.36,0a28,28,0,0,0-5.9.7,11.12,11.12,0,0,0-2.35.72A8.66,8.66,0,0,0,.19,4.55c.16.24.36.29.48.57A10.37,10.37,0,0,1,1,6.33c.17.76.3,1.63.54,2.38a3.68,3.68,0,0,0,.44,1c1.11,1.63,3.64,2.44,5.42,2.83a20.49,20.49,0,0,0,7.92.09,6.23,6.23,0,0,0,2-.85C18.22,11.24,19,9.12,19.4,8c.13-.46.26-1,.39-1.46.29-.47,1.17-.68,1.83-.79a3.62,3.62,0,0,1,.76,0c.66.11,1.54.32,1.83.79.13.46.26,1,.39,1.46.4,1.14,1.18,3.26,2.07,3.83a6.23,6.23,0,0,0,2,.85,20.49,20.49,0,0,0,7.92-.09c1.78-.39,4.31-1.2,5.42-2.83a3.68,3.68,0,0,0,.44-1c.24-.75.37-1.62.54-2.38a10.37,10.37,0,0,1,.34-1.21c.12-.28.32-.33.48-.57A8.66,8.66,0,0,0,43.89,1.42Zm-25,5.16a17.67,17.67,0,0,1-.58,2A6,6,0,0,1,16.9,11a6.36,6.36,0,0,1-2.39,1,18.1,18.1,0,0,1-8.64-.69A5.36,5.36,0,0,1,3.1,9.59a5.12,5.12,0,0,1-.5-1.11,13.09,13.09,0,0,1-.55-2.94c0-.79-.2-2.57.47-3.12a4.07,4.07,0,0,1,1.73-.58,24.22,24.22,0,0,1,6.3-.31A22.56,22.56,0,0,1,17,2.67a2.93,2.93,0,0,1,1.92,1.44A6.39,6.39,0,0,1,18.88,6.58ZM42,5.54a13.09,13.09,0,0,1-.55,2.94,5.12,5.12,0,0,1-.5,1.11,5.36,5.36,0,0,1-2.77,1.72,18.1,18.1,0,0,1-8.64.69,6.36,6.36,0,0,1-2.39-1,6,6,0,0,1-1.4-2.44,17.67,17.67,0,0,1-.58-2,6.39,6.39,0,0,1-.06-2.47A2.93,2.93,0,0,1,27,2.67a22.56,22.56,0,0,1,6.47-1.14,24.22,24.22,0,0,1,6.3.31,4.07,4.07,0,0,1,1.73.58C42.15,3,42,4.75,42,5.54Z"/></g></g></svg>