<svg xmlns="http://www.w3.org/2000/svg" viewBox="0 0 38 38"><defs><style>.cls-1{fill:#4e6e91;}.cls-2{fill:#fff;}</style></defs><title>vk-</title><g id="Layer_2" data-name="Layer 2"><g id="Layer_1-2" data-name="Layer 1"><circle class="cls-1" cx="19" cy="19" r="19"/><path class="cls-2" d="M22.76,25.05a7.89,7.89,0,0,1-1.08.34c-.23.06-.46,0-.61.07H14.93a14.32,14.32,0,0,1-.07-2.3V15.07a13.45,13.45,0,0,1,.07-2.23c2.76.13,6.62-.43,8.43.88a3.26,3.26,0,0,1,.81,2.76,2.93,2.93,0,0,1-1.55,2c.14.29.48.18.74.34a3.73,3.73,0,0,1,1.29,1.14,4.31,4.31,0,0,1,.33.81v.61C25.4,23,23.82,24.58,22.76,25.05Zm-2-7.83.07-.47a1.38,1.38,0,0,0-.07-.94c-.08-.16-.3-.26-.4-.41a17.29,17.29,0,0,0-2.16-.13v2.49C19.18,17.79,20.37,17.86,20.73,17.22Zm.47,3.18-1.08-.34a6.56,6.56,0,0,0-1.95.07V23a8.13,8.13,0,0,0,2.56-.14c.37-.14.53-.47.81-.67a3.1,3.1,0,0,0,0-1.42C21.47,20.67,21.29,20.53,21.2,20.4Z"/></g></g></svg>